<svg id="Layer_1" data-name="Layer 1" xmlns="http://www.w3.org/2000/svg" viewBox="0 0 42 11"><defs><style>.cls-1{fill:#184275;}.cls-2{fill:#fff;}</style></defs><g id="Group_2744" data-name="Group 2744"><g id="Rectangle_166" data-name="Rectangle 166"><rect id="Rectangle_166-2" data-name="Rectangle 166-2" class="cls-1" x="4.86" y="0.77" width="8.98" height="4.68"/></g><g id="Ellipse_83" data-name="Ellipse 83"><circle id="Ellipse_83-2" data-name="Ellipse 83-2" class="cls-2" cx="9.34" cy="3.26" r="1.85"/></g><g id="Path_11956" data-name="Path 11956"><path id="Path_11956-2" data-name="Path 11956-2" class="cls-2" d="M9.81,5.16a2,2,0,1,1,1.44-2.37h0A2,2,0,0,1,9.81,5.16ZM8.93,1.58A1.72,1.72,0,1,0,11,2.85h0A1.73,1.73,0,0,0,8.93,1.58Z"/></g><g id="Path_11957" data-name="Path 11957"><path id="Path_11957-2" data-name="Path 11957-2" class="cls-1" d="M9.49,3.14h0l-.07,0Q9.15,3,9.15,2.86a.14.14,0,0,1,0-.1.17.17,0,0,1,.12,0,.18.18,0,0,1,.16,0,.23.23,0,0,1,.06.16V3h.37v0a.42.42,0,0,0-.14-.35.46.46,0,0,0-.25-.1v-.2H9.15v.2a.5.5,0,0,0-.24.09.33.33,0,0,0-.15.31.34.34,0,0,0,.09.25,1.8,1.8,0,0,0,.43.29l0,0c.15.07.22.14.22.2a.16.16,0,0,1,0,.11.23.23,0,0,1-.14,0,.18.18,0,0,1-.16,0,.29.29,0,0,1,0-.2v0H8.75v.06a.44.44,0,0,0,.15.36.52.52,0,0,0,.27.1v.2h.37V4a.52.52,0,0,0,.26-.1A.34.34,0,0,0,10,3.63C9.94,3.46,9.79,3.3,9.49,3.14Z"/></g><g id="Path_11958" data-name="Path 11958"><path id="Path_11958-2" data-name="Path 11958-2" class="cls-1" d="M6.4,10.18A8.18,8.18,0,0,1,3.47,9s-.22,0-.3.06a1,1,0,0,1-.51.08l0-.22a1.09,1.09,0,0,0,.39-.08c.2-.07.38-.13.52,0A8.27,8.27,0,0,0,6.4,10C8.53,10,12,8.12,14,7l.07,0a.63.63,0,0,0,.37-.44.53.53,0,0,0-.14-.43,1.2,1.2,0,0,0-.75-.06,3.86,3.86,0,0,0-1,.25l-1.93.86,0,0a.46.46,0,0,0-.22-.06H8.25a1.64,1.64,0,0,1-.84-.37,4.15,4.15,0,0,0-1.15-.58A30.71,30.71,0,0,0,2.68,5.8V5.57a29.81,29.81,0,0,1,3.64.32,4.91,4.91,0,0,1,1.21.61,1.62,1.62,0,0,0,.71.34h2.1a.58.58,0,0,1,.28.07l1.83-.82c.44-.21,1.72-.46,2-.13a.79.79,0,0,1,.19.62.89.89,0,0,1-.49.61l-.07,0C12,8.33,8.58,10.18,6.4,10.18Z"/></g><g id="Path_11959" data-name="Path 11959"><path id="Path_11959-2" data-name="Path 11959-2" class="cls-1" d="M11,7.63a.78.78,0,0,1,0,.22.74.74,0,0,1-.24.36.54.54,0,0,1-.2.1h-.22l-.22,0-.43,0-.86.07-.43,0-.43,0h0l-.2,0-.2,0-.4.08-.19.06-.1,0h0l0,0-.19.08A.61.61,0,0,0,6.39,9h0a.54.54,0,0,1,.15-.15l.18-.11.18-.08.2-.07.4-.11.41-.08h0l.43,0,.43,0,.87,0,.43,0h.42a.66.66,0,0,0,.19-.09A.67.67,0,0,0,10.82,8l0,0,0,0,0,0,0-.05a.76.76,0,0,0,0-.21Z"/></g><g id="Rectangle_167" data-name="Rectangle 167"><path id="Path_11960" data-name="Path 11960" class="cls-1" d="M2.81,9.13H.23V5.57H2.81ZM.47,8.9h2.1V5.8H.47Z"/></g><g id="Line_80" data-name="Line 80"><rect id="Rectangle_167-2" data-name="Rectangle 167-2" class="cls-1" x="15.73" y="0.77" width="0.19" height="9.5"/></g><g id="Path_11960-2" data-name="Path 11960-2"><path id="Path_11961" data-name="Path 11961" class="cls-1" d="M20.44,4.14a1.69,1.69,0,0,1-1.35.63,2,2,0,0,1,0-3.91,1.7,1.7,0,0,1,1.35.64.18.18,0,0,1,0,.25h0l0,0-.18.1a.17.17,0,0,1-.23,0,1.16,1.16,0,0,0-.9-.43,1.42,1.42,0,0,0,0,2.84,1.16,1.16,0,0,0,.9-.43.18.18,0,0,1,.23-.05l.18.1a.24.24,0,0,1,.09.13A.2.2,0,0,1,20.44,4.14Z"/></g><g id="Path_11961-2" data-name="Path 11961-2"><path id="Path_11962" data-name="Path 11962" class="cls-1" d="M21.89,3.9l-.28.7a.18.18,0,0,1-.17.11h-.27A.18.18,0,0,1,21,4.53a.14.14,0,0,1,0-.06L22.38,1a.18.18,0,0,1,.17-.11H23a.16.16,0,0,1,.16.11L24.5,4.46a.18.18,0,0,1-.1.24h-.33a.18.18,0,0,1-.17-.11l-.28-.7Zm1.54-.53-.68-1.73-.68,1.73Z"/></g><g id="Path_11962-2" data-name="Path 11962-2"><path id="Path_11963" data-name="Path 11963" class="cls-1" d="M27.31,1.74a1.38,1.38,0,0,0-.93-.33c-.31,0-.68.15-.68.52,0,.73,2.16.3,2.16,1.71,0,.81-.69,1.14-1.41,1.14a1.87,1.87,0,0,1-1.38-.53.18.18,0,0,1,0-.24l.12-.16a.19.19,0,0,1,.26,0h0a1.44,1.44,0,0,0,1,.41c.35,0,.79-.14.79-.56,0-.87-2.16-.37-2.16-1.73A1.19,1.19,0,0,1,26.38.87h0a1.88,1.88,0,0,1,1.26.45.19.19,0,0,1,0,.25l-.13.16a.17.17,0,0,1-.12.06.16.16,0,0,1-.14-.05Z"/></g><g id="Path_11963-2" data-name="Path 11963-2"><path id="Path_11964" data-name="Path 11964" class="cls-1" d="M31,3H29v1.5a.19.19,0,0,1-.18.19h-.23a.19.19,0,0,1-.18-.19V1.11a.18.18,0,0,1,.18-.18h.23a.18.18,0,0,1,.18.18V2.5h2V1.11a.18.18,0,0,1,.19-.18h.22a.18.18,0,0,1,.18.18V4.53a.19.19,0,0,1-.18.19h-.22A.2.2,0,0,1,31,4.53Z"/></g><g id="Path_11964-2" data-name="Path 11964-2"><path id="Path_11965" data-name="Path 11965" class="cls-1" d="M34.05,2.82a1.88,1.88,0,1,1,1.88,2A1.84,1.84,0,0,1,34.05,3Zm1.88,1.42A1.42,1.42,0,0,0,37.5,3a1.43,1.43,0,0,0-2.84-.3.76.76,0,0,0,0,.15,1.3,1.3,0,0,0,1.16,1.42Z"/></g><g id="Path_11965-2" data-name="Path 11965-2"><path id="Path_11966" data-name="Path 11966" class="cls-1" d="M38.93,1.93v2.6a.18.18,0,0,1-.18.18h-.22a.18.18,0,0,1-.18-.18V1.11a.18.18,0,0,1,.18-.18h.29A.21.21,0,0,1,39,1l2,2.65V1.11A.18.18,0,0,1,41.1.93h.22a.18.18,0,0,1,.18.18V4.53a.18.18,0,0,1-.18.18h-.26a.2.2,0,0,1-.15-.07Z"/></g><g id="Path_11966-2" data-name="Path 11966-2"><path id="Path_11967" data-name="Path 11967" class="cls-1" d="M18.46,6.44a1.89,1.89,0,1,1,0,3.78H17.32a.18.18,0,0,1-.18-.18V6.62a.18.18,0,0,1,.18-.18ZM17.73,7V9.68h.73a1.36,1.36,0,0,0,0-2.71Z"/></g><g id="Path_11967-2" data-name="Path 11967-2"><path id="Path_11968" data-name="Path 11968" class="cls-1" d="M21.52,8h1.39a.18.18,0,0,1,.18.18v.17a.18.18,0,0,1-.18.18H21.52V9.68h1.76a.18.18,0,0,1,.18.18V10a.18.18,0,0,1-.18.18H21.12a.19.19,0,0,1-.19-.18V6.62a.19.19,0,0,1,.19-.18h2.16a.18.18,0,0,1,.18.18v.17a.18.18,0,0,1-.18.18H21.52Z"/></g><g id="Path_11968-2" data-name="Path 11968-2"><path id="Path_11969" data-name="Path 11969" class="cls-1" d="M26.17,9.68a.21.21,0,0,1,.19.19V10a.19.19,0,0,1-.19.18H24.25a.18.18,0,0,1-.18-.18V6.62a.18.18,0,0,1,.18-.18h.23a.18.18,0,0,1,.18.18V9.68Z"/></g><g id="Path_11969-2" data-name="Path 11969-2"><path id="Path_11970" data-name="Path 11970" class="cls-1" d="M27.37,6.44a.18.18,0,0,1,.18.18V10a.18.18,0,0,1-.18.18h-.22A.18.18,0,0,1,27,10V6.62a.18.18,0,0,1,.18-.18Z"/></g><g id="Path_11970-2" data-name="Path 11970-2"><path id="Path_11971" data-name="Path 11971" class="cls-1" d="M29.93,9.48l1.14-2.93a.17.17,0,0,1,.17-.11h.27a.18.18,0,0,1,.18.18s0,0,0,.06L30.3,10.1a.19.19,0,0,1-.17.12h-.41a.19.19,0,0,1-.17-.12L28.18,6.68a.17.17,0,0,1,.1-.23l.07,0h.27a.17.17,0,0,1,.16.12Z"/></g><g id="Path_11971-2" data-name="Path 11971-2"><path id="Path_11972" data-name="Path 11972" class="cls-1" d="M32.81,8H34.2a.18.18,0,0,1,.18.18v.17a.18.18,0,0,1-.18.18H32.81V9.68h1.76a.18.18,0,0,1,.18.18V10a.18.18,0,0,1-.18.18H32.41a.18.18,0,0,1-.18-.18V6.62a.18.18,0,0,1,.18-.18h2.16a.18.18,0,0,1,.18.18v.17a.18.18,0,0,1-.18.18H32.81Z"/></g><g id="Path_11972-2" data-name="Path 11972-2"><path id="Path_11973" data-name="Path 11973" class="cls-1" d="M35.88,8.77V10a.18.18,0,0,1-.18.18h-.22A.18.18,0,0,1,35.3,10V6.62a.18.18,0,0,1,.18-.18h1.35a1.13,1.13,0,0,1,1.21,1V7.6a1.08,1.08,0,0,1-.9,1.12L38,9.94a.19.19,0,0,1-.05.25.19.19,0,0,1-.1,0h-.26a.18.18,0,0,1-.15-.08l-.88-1.37Zm0-1.8V8.23h.9a.63.63,0,0,0,0-1.26h-.95Z"/></g><g id="Path_11973-2" data-name="Path 11973-2"><path id="Path_11974" data-name="Path 11974" class="cls-1" d="M39.88,8.63l-1.3-1.91a.18.18,0,0,1,0-.25.2.2,0,0,1,.11,0H39a.15.15,0,0,1,.15.08l1,1.56,1-1.56a.14.14,0,0,1,.15-.08h.25a.18.18,0,0,1,.18.18.19.19,0,0,1,0,.1l-1.3,1.91V10a.18.18,0,0,1-.18.18h-.23a.18.18,0,0,1-.18-.18Z"/></g></g></svg>