<svg xmlns="http://www.w3.org/2000/svg" width="22.172" height="26.165">
    <defs>
        <style>
            .cls-1{fill:#fff}
        </style>
    </defs>
    <g id="ic_address" transform="translate(63.943 -358.742)">
        <path id="Path_12123" data-name="Path 12123" class="cls-1" d="M-44.005 358.742h-16.878a2.24 2.24 0 0 0-2.237 2.234v2.186h-.164a.644.644 0 0 0-.658.594.639.639 0 0 0 .646.659h.176v2.765h-.164a.607.607 0 0 0-.452.16.623.623 0 0 0-.206.434.638.638 0 0 0 .646.659h.176v2.767h-.164a.624.624 0 0 0-.452.16.625.625 0 0 0-.206.434.638.638 0 0 0 .646.659h.176v2.765h-.164a.611.611 0 0 0-.452.16.625.625 0 0 0-.206.434.638.638 0 0 0 .646.659h.176v2.765h-.164a.624.624 0 0 0-.452.161.621.621 0 0 0-.206.433.638.638 0 0 0 .646.659h.176v2.186a2.24 2.24 0 0 0 2.235 2.234h16.88a2.239 2.239 0 0 0 2.234-2.234v-21.7a2.239 2.239 0 0 0-2.234-2.233zm-17.074 21.088a.627.627 0 0 0-.607-.594h-.176v-2.766h.189a.628.628 0 0 0 .594-.658.627.627 0 0 0-.607-.594h-.176v-2.765h.189a.628.628 0 0 0 .594-.659.627.627 0 0 0-.607-.593h-.176v-2.765h.189a.628.628 0 0 0 .594-.659.627.627 0 0 0-.607-.593h-.176v-2.765h.189a.629.629 0 0 0 .594-.659.628.628 0 0 0-.607-.593h-.176v-2.187a.982.982 0 0 1 .981-.981H-44a.979.979 0 0 1 .693.285.977.977 0 0 1 .289.7v21.7a.983.983 0 0 1-.98.981h-16.883a.983.983 0 0 1-.981-.981v-2.186h.189a.628.628 0 0 0 .594-.668z"/>
        <path id="Path_12124" data-name="Path 12124" class="cls-1" d="M-60.1 383.122a.623.623 0 0 0 .419.161h.033a.628.628 0 0 0 .6-.606v-21.7a.628.628 0 0 0-.626-.627.627.627 0 0 0-.627.627v21.712a.626.626 0 0 0 .201.433z"/>
        <path id="Path_12125" data-name="Path 12125" class="cls-1" d="M-56.067 378.479h9.644a1.029 1.029 0 0 0 1.028-1.028v-1.818a2.236 2.236 0 0 0-1.232-2l-1.269-.585a1.032 1.032 0 0 0-1.363.505 2.175 2.175 0 0 1-1.23 1.133 2.168 2.168 0 0 1-1.671-.069 2.191 2.191 0 0 1-1.065-1.064 1.031 1.031 0 0 0-1.365-.5l-1.2.558-.065.026a2.237 2.237 0 0 0-1.24 2v1.819a1.03 1.03 0 0 0 1.028 1.023zm.228-1.253v-1.6a.964.964 0 0 1 .53-.872l1.047-.487a3.444 3.444 0 0 0 4.466 1.477 3.442 3.442 0 0 0 1.571-1.477l1.043.484a.969.969 0 0 1 .537.877v1.593z"/>
        <path id="Path_12126" data-name="Path 12126" class="cls-1" d="M-51.35 374.057h.115a3.445 3.445 0 0 0 3.438-3.44v-2.412a2.644 2.644 0 0 0-2.638-2.633h-1.607a2.642 2.642 0 0 0-2.635 2.635v2.293a3.518 3.518 0 0 0 3.327 3.557zm-2.074-3.552v-2.3a1.385 1.385 0 0 1 1.381-1.382h1.607a1.388 1.388 0 0 1 1.383 1.382v2.415a2.189 2.189 0 0 1-2.186 2.186h-.06a2.264 2.264 0 0 1-2.125-2.301z"/>
    </g>
</svg>
