<svg xmlns="http://www.w3.org/2000/svg" width="40.316" height="16.553">
    <path d="M7.366 2.134a2.477 2.477 0 0 1-1.985.937 2.808 2.808 0 0 1 .709-2.055A2.96 2.96 0 0 1 8.059 0a2.99 2.99 0 0 1-.693 2.134m.685 1.087c-1.095-.063-2.032.622-2.552.622s-1.322-.591-2.189-.575a3.235 3.235 0 0 0-2.748 1.67c-1.181 2.031-.307 5.04.838 6.693.559.819 1.229 1.717 2.111 1.685.835-.031 1.166-.543 2.174-.543s1.307.543 2.189.528c.914-.016 1.488-.819 2.048-1.638a7.183 7.183 0 0 0 .914-1.882 2.967 2.967 0 0 1-1.78-2.7 3.03 3.03 0 0 1 1.441-2.536 3.121 3.121 0 0 0-2.446-1.324M14.375.937v12.277h1.906v-4.2h2.638a3.9 3.9 0 0 0 4.1-4.048A3.851 3.851 0 0 0 18.982.937zm1.906 1.607h2.2a2.29 2.29 0 0 1 2.6 2.433 3.81 3.81 0 0 1-2.611 2.441h-2.189zM26.5 13.309a3.153 3.153 0 0 0 2.811-1.567h.039v1.473h1.764V7.1c0-1.772-1.418-2.914-3.6-2.914-2.024 0-3.52 1.158-3.575 2.748h1.721a1.673 1.673 0 0 1 1.8-1.252c1.166 0 1.819.543 1.819 1.544v.677l-2.379.145c-2.213.134-3.41 1.04-3.41 2.615a2.7 2.7 0 0 0 3.01 2.646zm.512-1.457c-1.016 0-1.662-.488-1.662-1.236 0-.772.622-1.221 1.811-1.292l2.118-.134v.693a2.071 2.071 0 0 1-2.265 1.969zm6.458 4.7c1.859 0 2.733-.709 3.5-2.859l3.347-9.387h-1.939l-2.244 7.253h-.039L33.85 4.308h-1.993l3.229 8.938-.173.543a1.515 1.515 0 0 1-1.607 1.276 6.23 6.23 0 0 1-.559-.031v1.473a5.249 5.249 0 0 0 .725.047z"/>
</svg>
