<svg id="Group_2740" data-name="Group 2740" xmlns="http://www.w3.org/2000/svg" width="41.488" height="13.835">
    <defs>
        <style>
            .cls-3{fill:#27292d}
        </style>
    </defs>
    <path id="Rectangle_164" data-name="Rectangle 164" transform="translate(0 7.978)" style="fill:#84b740" d="M0 0h17.55v5.847H0z"/>
    <path id="Rectangle_165" data-name="Rectangle 165" style="fill:#259bd6" d="M0 0h17.55v5.852H0z"/>
    <path id="Path_11939" data-name="Path 11939" class="cls-3" d="m618.907 138.421-.078.016a2.559 2.559 0 0 1-.568.073c-.459 0-1-.234-1-1.339 0-.568.094-1.324.948-1.324h.005a2.567 2.567 0 0 1 .625.12l.068.021v2.433zm.141-5.508-.141.026v2.043l-.125-.036-.036-.01a2.877 2.877 0 0 0-.776-.135c-1.709 0-2.069 1.292-2.069 2.376a2.107 2.107 0 0 0 2.288 2.34 4.637 4.637 0 0 0 1.527-.214.675.675 0 0 0 .573-.74V132.7c-.406.073-.829.146-1.24.214" transform="translate(-583.807 -125.785)"/>
    <path id="Path_11940" data-name="Path 11940" class="cls-3" d="m717.544 176.184-.073.021-.26.068a2.715 2.715 0 0 1-.631.1c-.4 0-.641-.2-.641-.537 0-.219.1-.589.756-.589h.849zm-.6-3.684a5.766 5.766 0 0 0-1.74.3l-.438.13.146.99.427-.141a5.024 5.024 0 0 1 1.423-.24c.188 0 .761 0 .761.62v.271h-.8c-1.454 0-2.126.464-2.126 1.459 0 .849.62 1.36 1.662 1.36a5.372 5.372 0 0 0 1.157-.156l.021-.005.021.005.13.021c.406.073.828.146 1.24.224v-3.252c0-1.053-.636-1.589-1.886-1.589" transform="translate(-677.364 -163.511)"/>
    <path id="Path_11941" data-name="Path 11941" class="cls-3" d="m523.244 176.184-.073.021-.26.068a2.675 2.675 0 0 1-.631.1c-.4 0-.641-.2-.641-.537 0-.219.1-.589.75-.589h.849l.005.938zm-.594-3.684a5.74 5.74 0 0 0-1.74.3l-.438.13.146.99.427-.141a5.023 5.023 0 0 1 1.422-.24c.188 0 .761 0 .761.62v.271h-.8c-1.454 0-2.131.464-2.131 1.459 0 .849.62 1.36 1.667 1.36a5.373 5.373 0 0 0 1.157-.156l.021-.005.021.005.125.021c.412.073.828.146 1.24.229v-3.252c.005-1.063-.63-1.595-1.881-1.595" transform="translate(-493.188 -163.511)"/>
    <path id="Path_11942" data-name="Path 11942" class="cls-3" d="M382.588 172.605a3.517 3.517 0 0 0-1.412.313l-.052.026-.047-.036a2.138 2.138 0 0 0-1.266-.307 5.181 5.181 0 0 0-1.5.224c-.443.135-.615.349-.615.75v3.715h1.386v-3.434l.068-.021a1.763 1.763 0 0 1 .61-.109.548.548 0 0 1 .6.63v2.939h1.365v-3a1.01 1.01 0 0 0-.042-.3l-.047-.089.094-.042a1.643 1.643 0 0 1 .677-.141.552.552 0 0 1 .6.63v2.939h1.36v-3.074c0-1.089-.584-1.615-1.793-1.615" transform="translate(-358.019 -163.606)"/>
    <path id="Path_11943" data-name="Path 11943" class="cls-3" d="M589.79 3.814a4.729 4.729 0 0 1-.808-.073l-.078-.016V1.72a.985.985 0 0 0-.036-.287l-.042-.083.089-.036c.021-.01.042-.016.068-.026l.016-.01.094-.031a.133.133 0 0 1 .036-.01 3.236 3.236 0 0 1 .714-.083h.005c.849 0 .948.756.948 1.324-.005 1.1-.552 1.339-1.006 1.339M589.784 0h-.036a2.455 2.455 0 0 0-1.907.646 1.3 1.3 0 0 0-.25.776v2.069a.61.61 0 0 1-.042.261l-.047.089h-2.517V2.4h-.005a2.144 2.144 0 0 0-2.225-2.35h-1.266c-.052.37-.094.631-.146 1h1.257c.662 0 1.011.563 1.011 1.428v1.451l-.089-.047a.956.956 0 0 0-.3-.042h-2.178c-.042.276-.094.636-.151 1h6.7c.229-.047.495-.089.724-.125a3.771 3.771 0 0 0 1.4.255 2.286 2.286 0 0 0 2.4-2.475A2.3 2.3 0 0 0 589.784 0" transform="translate(-550.63)"/>
    <path id="Path_11944" data-name="Path 11944" class="cls-3" d="M385.433 6.488h.063c1.454 0 2.131-.479 2.131-1.662a1.522 1.522 0 0 0-1.663-1.526h-1.339a.577.577 0 0 1-.641-.615c0-.261.1-.584.756-.584h2.928c.063-.38.094-.62.151-1h-3.043c-1.417 0-2.131.594-2.131 1.584s.62 1.49 1.662 1.49h1.339a.632.632 0 0 1 .641.651.655.655 0 0 1-.75.672h-.224l-4.289-.01h-.782c-.662 0-1.126-.375-1.126-1.245v-.6c0-.907.36-1.469 1.126-1.469h1.271c.057-.386.094-.631.146-1h-1.735a2.174 2.174 0 0 0-2.224 2.391v.677a2.057 2.057 0 0 0 2.225 2.241h1.266l2.324.005h1.918z" transform="translate(-358.019 -1.043)"/>
</svg>
