<svg id="Layer_1" data-name="Layer 1" xmlns="http://www.w3.org/2000/svg" viewBox="0 0 30 30"><path d="M28.09,6.62A1,1,0,0,0,28,6.48a1,1,0,0,0-.09-.18L24,1A1.33,1.33,0,0,0,22.91.5H7.09A1.33,1.33,0,0,0,6,1l-4,5.27A1,1,0,0,0,2,6.48a1,1,0,0,0-.08.14,1.51,1.51,0,0,0-.09.47V25.55A4,4,0,0,0,5.77,29.5H24.23a4,4,0,0,0,3.95-3.95V7.09A1.51,1.51,0,0,0,28.09,6.62ZM7.75,3.14h14.5l2,2.63H5.77ZM24.23,26.86H5.77a1.32,1.32,0,0,1-1.32-1.31V8.41h21.1V25.55A1.32,1.32,0,0,1,24.23,26.86Z"/><path d="M20.27,11.05A1.32,1.32,0,0,0,19,12.36a4,4,0,1,1-7.9,0,1.32,1.32,0,0,0-2.64,0,6.59,6.59,0,0,0,13.18,0A1.32,1.32,0,0,0,20.27,11.05Z"/></svg>