<svg xmlns="http://www.w3.org/2000/svg" width="41.563" height="9.5">
    <defs>
        <style>
            .cls-1{fill:#0f4175}.cls-2{fill:#fff}
        </style>
    </defs>
    <g id="Group_2744" data-name="Group 2744" transform="translate(-191.977 -396.701)">
        <g id="Rectangle_166" data-name="Rectangle 166" transform="translate(196.602 396.701)">
            <path id="Rectangle_166-2" data-name="Rectangle 166" class="cls-1" d="M0 0h8.979v4.683H0z"/>
        </g>
        <g id="Ellipse_83" data-name="Ellipse 83" transform="translate(199.241 397.341)">
            <circle id="Ellipse_83-2" data-name="Ellipse 83" class="cls-2" cx="1.845" cy="1.845" r="1.845"/>
        </g>
        <g id="Path_11956" data-name="Path 11956" transform="translate(199.121 397.221)">
            <path id="Path_11956-2" data-name="Path 11956" class="cls-2" d="M233.591 403.428a1.964 1.964 0 1 1 1.44-2.375 1.964 1.964 0 0 1-1.44 2.375zm-.879-3.583a1.726 1.726 0 1 0 2.087 1.265 1.725 1.725 0 0 0-2.087-1.265z" transform="translate(-231.158 -399.556)"/>
        </g>
        <g id="Path_11957" data-name="Path 11957" transform="translate(200.492 398.207)">
            <path id="Path_11957-2" data-name="Path 11957" class="cls-1" d="m239.421 405.82-.07-.037c-.183-.1-.274-.177-.275-.242a.112.112 0 0 1 .047-.095.207.207 0 0 1 .127-.037.224.224 0 0 1 .161.05.222.222 0 0 1 .053.162v.03h.376v-.031a.428.428 0 0 0-.144-.35.511.511 0 0 0-.246-.1v-.2h-.37v.2a.6.6 0 0 0-.248.093.349.349 0 0 0-.149.308.381.381 0 0 0 .093.255 1.638 1.638 0 0 0 .427.282l.047.025c.145.074.217.14.217.2a.128.128 0 0 1-.051.108.222.222 0 0 1-.14.041.208.208 0 0 1-.163-.053.32.32 0 0 1-.049-.2v-.026h-.383a.27.27 0 0 1 0 .03.15.15 0 0 0 0 .029.444.444 0 0 0 .148.364.549.549 0 0 0 .268.1v.2h.369v-.2a.618.618 0 0 0 .258-.1.355.355 0 0 0 .154-.312q-.01-.256-.457-.494z" transform="translate(-238.676 -404.96)"/>
        </g>
        <g id="Path_11958" data-name="Path 11958" transform="translate(194.404 401.496)">
            <path id="Path_11958-2" data-name="Path 11958" class="cls-1" d="M209.025 427.616a8.332 8.332 0 0 1-2.93-1.2c-.033-.027-.219.034-.3.061a1.052 1.052 0 0 1-.509.082l.047-.229a.914.914 0 0 0 .389-.075c.2-.066.388-.129.521-.019a8.358 8.358 0 0 0 2.782 1.148c2.127 0 5.553-1.832 7.6-2.926l.075-.04a.666.666 0 0 0 .368-.445.5.5 0 0 0-.139-.424c-.059-.067-.315-.111-.751-.061a3.669 3.669 0 0 0-1 .248l-1.93.861-.051-.029a.46.46 0 0 0-.225-.059h-2.1a1.728 1.728 0 0 1-.832-.376 4.276 4.276 0 0 0-1.153-.581 30.346 30.346 0 0 0-3.584-.317l.009-.233a29.5 29.5 0 0 1 3.639.327 4.521 4.521 0 0 1 1.215.61 1.663 1.663 0 0 0 .706.339h2.1a.7.7 0 0 1 .285.062l1.824-.814c.448-.21 1.724-.462 2.02-.13a.732.732 0 0 1 .194.62.9.9 0 0 1-.488.609l-.075.04c-2.063 1.102-5.522 2.951-7.707 2.951z" transform="translate(-205.287 -423.001)"/>
        </g>
        <g id="Path_11959" data-name="Path 11959" transform="translate(198.138 403.563)">
            <path id="Path_11959-2" data-name="Path 11959" class="cls-1" d="M230.348 434.337a.8.8 0 0 1-.027.216.7.7 0 0 1-.242.362.621.621 0 0 1-.2.1l-.027.008-.028.005a.407.407 0 0 1-.056.009l-.109.009-.216.018-.431.034-.862.068-.431.036-.43.034-.2.032-.2.035q-.2.037-.394.085-.1.025-.194.053l-.1.03-.047.016-.047.017a1.505 1.505 0 0 0-.182.082.659.659 0 0 0-.161.117l-.011-.008a.61.61 0 0 1 .146-.148 1.3 1.3 0 0 1 .178-.109q.092-.048.189-.086a4.81 4.81 0 0 1 1.001-.256h.005l.432-.021.431-.019.863-.041.432-.021.216-.009h.106a.345.345 0 0 0 .051-.005h.026l.025-.007a.568.568 0 0 0 .188-.086.637.637 0 0 0 .148-.147.416.416 0 0 0 .03-.044c.008-.016.018-.03.026-.047l.023-.048.018-.05a.77.77 0 0 0 .037-.21z" transform="translate(-225.767 -434.337)"/>
        </g>
        <g id="Rectangle_167" data-name="Rectangle 167" transform="translate(191.977 401.497)">
            <path id="Path_11960" data-name="Path 11960" class="cls-1" d="M194.549 426.571h-2.572v-3.566h2.572zm-2.339-.233h2.106v-3.1h-2.106z" transform="translate(-191.977 -423.005)"/>
        </g>
        <g id="Line_80" data-name="Line 80" transform="translate(207.476 396.704)">
            <path id="Rectangle_167-2" data-name="Rectangle 167" class="cls-1" d="M0 0h.187v9.497H0z"/>
        </g>
        <g id="Path_11960-2" data-name="Path 11960" transform="translate(208.885 396.797)">
            <path id="Path_11961" data-name="Path 11961" class="cls-1" d="M288.01 400.5a1.691 1.691 0 0 1-1.353.635 1.955 1.955 0 0 1 0-3.909 1.688 1.688 0 0 1 1.353.637.181.181 0 0 1-.026.255.185.185 0 0 1-.027.018l-.179.1a.18.18 0 0 1-.229-.044 1.17 1.17 0 0 0-.894-.429 1.422 1.422 0 0 0 0 2.84 1.159 1.159 0 0 0 .894-.428.18.18 0 0 1 .229-.047l.179.1a.177.177 0 0 1 .091.126.174.174 0 0 1-.038.146z" transform="translate(-284.713 -397.231)"/>
        </g>
        <g id="Path_11961-2" data-name="Path 11961" transform="translate(212.735 396.857)">
            <path id="Path_11962" data-name="Path 11962" class="cls-1" d="m306.72 400.533-.277.7a.179.179 0 0 1-.168.114h-.269a.181.181 0 0 1-.168-.249l1.375-3.422a.178.178 0 0 1 .168-.114h.407a.178.178 0 0 1 .168.113l1.379 3.421a.181.181 0 0 1-.1.236.18.18 0 0 1-.068.013h-.267a.178.178 0 0 1-.168-.114l-.278-.7zm1.543-.535-.677-1.726L306.9 400z" transform="translate(-305.824 -397.56)"/>
        </g>
        <g id="Path_11962-2" data-name="Path 11962" transform="translate(216.762 396.803)">
            <path id="Path_11963" data-name="Path 11963" class="cls-1" d="M330.207 398.13a1.357 1.357 0 0 0-.927-.334c-.315 0-.686.15-.686.516 0 .736 2.164.307 2.164 1.715 0 .812-.693 1.138-1.412 1.138a1.907 1.907 0 0 1-1.377-.524.18.18 0 0 1-.015-.24l.125-.161a.181.181 0 0 1 .254-.032l.013.012a1.472 1.472 0 0 0 1.015.41c.357 0 .8-.139.8-.565 0-.865-2.164-.373-2.164-1.726a1.183 1.183 0 0 1 1.319-1.078 1.82 1.82 0 0 1 1.263.449.181.181 0 0 1 .017.249l-.125.153a.174.174 0 0 1-.127.066.176.176 0 0 1-.135-.047z" transform="translate(-327.915 -397.26)"/>
        </g>
        <g id="Path_11963-2" data-name="Path 11963" transform="translate(220.145 396.858)">
            <path id="Path_11964" data-name="Path 11964" class="cls-1" d="M349.06 399.668h-2.007v1.5a.181.181 0 0 1-.181.181h-.222a.182.182 0 0 1-.181-.181v-3.421a.182.182 0 0 1 .181-.181h.222a.181.181 0 0 1 .181.181v1.391h2.007v-1.391a.182.182 0 0 1 .182-.181h.222a.181.181 0 0 1 .181.181v3.421a.181.181 0 0 1-.181.181h-.222a.182.182 0 0 1-.181-.181z" transform="translate(-346.469 -397.562)"/>
        </g>
        <g id="Path_11964-2" data-name="Path 11964" transform="translate(225.793 396.797)">
            <path id="Path_11965" data-name="Path 11965" class="cls-1" d="M377.445 399.186a1.879 1.879 0 1 1 1.878 1.954 1.846 1.846 0 0 1-1.878-1.954zm1.878 1.42a1.428 1.428 0 1 0-1.278-1.42 1.293 1.293 0 0 0 1.278 1.419z" transform="translate(-377.445 -397.231)"/>
        </g>
        <g id="Path_11965-2" data-name="Path 11965" transform="translate(230.093 396.858)">
            <path id="Path_11966" data-name="Path 11966" class="cls-1" d="M401.615 398.564v2.6a.182.182 0 0 1-.181.181h-.222a.182.182 0 0 1-.181-.181v-3.421a.182.182 0 0 1 .181-.181h.29a.175.175 0 0 1 .146.074l1.952 2.648v-2.541a.182.182 0 0 1 .181-.181H404a.182.182 0 0 1 .181.181v3.421a.182.182 0 0 1-.181.181h-.262a.176.176 0 0 1-.146-.074z" transform="translate(-401.031 -397.562)"/>
        </g>
        <g id="Path_11966-2" data-name="Path 11966" transform="translate(208.885 402.365)">
            <path id="Path_11967" data-name="Path 11967" class="cls-1" d="M286.025 427.769a1.893 1.893 0 1 1 0 3.786h-1.133a.182.182 0 0 1-.181-.181v-3.424a.181.181 0 0 1 .181-.181zm-.73.535v2.714h.73a1.357 1.357 0 0 0 0-2.713z" transform="translate(-284.711 -427.769)"/>
        </g>
        <g id="Path_11967-2" data-name="Path 11967" transform="translate(212.677 402.365)">
            <path id="Path_11968" data-name="Path 11968" class="cls-1" d="M306.091 429.352h1.388a.182.182 0 0 1 .181.181v.172a.182.182 0 0 1-.181.181h-1.388v1.131h1.758a.181.181 0 0 1 .181.181v.172a.181.181 0 0 1-.181.181h-2.161a.181.181 0 0 1-.181-.181v-3.42a.182.182 0 0 1 .181-.181h2.161a.181.181 0 0 1 .181.181v.172a.181.181 0 0 1-.181.181h-1.758z" transform="translate(-305.507 -427.769)"/>
        </g>
        <g id="Path_11968-2" data-name="Path 11968" transform="translate(215.816 402.365)">
            <path id="Path_11969" data-name="Path 11969" class="cls-1" d="M324.825 431.018a.182.182 0 0 1 .181.181v.172a.182.182 0 0 1-.181.181h-1.92a.181.181 0 0 1-.181-.181v-3.421a.181.181 0 0 1 .181-.181h.222a.181.181 0 0 1 .181.181v3.068z" transform="translate(-322.724 -427.769)"/>
        </g>
        <g id="Path_11969-2" data-name="Path 11969" transform="translate(218.712 402.365)">
            <path id="Path_11970" data-name="Path 11970" class="cls-1" d="M339.009 427.769a.182.182 0 0 1 .181.181v3.421a.182.182 0 0 1-.181.181h-.222a.181.181 0 0 1-.181-.181v-3.421a.181.181 0 0 1 .181-.181z" transform="translate(-338.606 -427.769)"/>
        </g>
        <g id="Path_11970-2" data-name="Path 11970" transform="translate(219.909 402.365)">
            <path id="Path_11971" data-name="Path 11971" class="cls-1" d="m346.934 430.809 1.143-2.927a.179.179 0 0 1 .169-.115h.268a.181.181 0 0 1 .181.181.178.178 0 0 1-.013.067l-1.38 3.42a.178.178 0 0 1-.168.113h-.407a.178.178 0 0 1-.168-.113l-1.375-3.421a.181.181 0 0 1 .168-.249h.269a.177.177 0 0 1 .168.115z" transform="translate(-345.172 -427.767)"/>
        </g>
        <g id="Path_11971-2" data-name="Path 11971" transform="translate(223.973 402.365)">
            <path id="Path_11972" data-name="Path 11972" class="cls-1" d="M368.047 429.352h1.388a.181.181 0 0 1 .181.181v.172a.181.181 0 0 1-.181.181h-1.388v1.131h1.758a.181.181 0 0 1 .181.181v.172a.181.181 0 0 1-.181.181h-2.16a.181.181 0 0 1-.181-.181v-3.42a.181.181 0 0 1 .181-.181h2.161a.181.181 0 0 1 .181.181v.172a.182.182 0 0 1-.181.181h-1.758z" transform="translate(-367.464 -427.769)"/>
        </g>
        <g id="Path_11972-2" data-name="Path 11972" transform="translate(227.04 402.365)">
            <path id="Path_11973" data-name="Path 11973" class="cls-1" d="M384.868 430.1v1.271a.181.181 0 0 1-.181.181h-.222a.182.182 0 0 1-.181-.181v-3.421a.181.181 0 0 1 .181-.181h1.352a1.129 1.129 0 0 1 1.21 1.167 1.073 1.073 0 0 1-.9 1.114l.809 1.223a.181.181 0 0 1-.151.28h-.257a.177.177 0 0 1-.152-.083l-.876-1.37zm0-1.8v1.268h.894a.634.634 0 1 0 0-1.267z" transform="translate(-384.284 -427.769)"/>
        </g>
        <g id="Path_11973-2" data-name="Path 11973" transform="translate(230.288 402.365)">
            <path id="Path_11974" data-name="Path 11974" class="cls-1" d="m403.432 429.962-1.305-1.91a.181.181 0 0 1 .149-.283h.249a.177.177 0 0 1 .151.08l1.045 1.566 1.046-1.566a.177.177 0 0 1 .151-.08h.249a.181.181 0 0 1 .15.283l-1.3 1.911v1.409a.182.182 0 0 1-.181.181h-.222a.181.181 0 0 1-.181-.181z" transform="translate(-402.095 -427.769)"/>
        </g>
    </g>
</svg>
