<svg xmlns="http://www.w3.org/2000/svg" width="12.453" height="16" viewBox="0 0 12.453 16">
  <g id="ic_delete" transform="translate(-31.481 0)">
    <g id="Group_2696" data-name="Group 2696" transform="translate(31.481 0)">
      <path id="Path_1537" data-name="Path 1537" d="M42.988,3.73,41.41,2.98l.082-.172A1.515,1.515,0,0,0,40.774.792L39.415.147A1.513,1.513,0,0,0,37.4.864l-.082.172L35.74.287a1.66,1.66,0,0,0-2.208.786l-.4.85a.563.563,0,0,0,.267.751L37.576,4.66H32.045a.563.563,0,0,0-.561.61l.74,8.884a2.024,2.024,0,0,0,2,1.845h4.143a2.024,2.024,0,0,0,2-1.845L41.031,6.3l1.589.755a.563.563,0,0,0,.751-.267l.4-.85A1.66,1.66,0,0,0,42.988,3.73ZM38.417,1.348a.386.386,0,0,1,.515-.183l1.359.645a.387.387,0,0,1,.183.515l-.082.172L38.335,1.52Zm.836,12.713a.89.89,0,0,1-.882.812H34.229a.89.89,0,0,1-.882-.812l-.69-8.274h7.286Zm3.5-8.606-.162.341L34.387,1.9l.162-.341a.531.531,0,0,1,.707-.252L42.5,4.747A.531.531,0,0,1,42.756,5.455Z" transform="translate(-31.481 0)" fill="#ce171f"/>
    </g>
  </g>
</svg>
