<svg xmlns="http://www.w3.org/2000/svg" width="29.6" height="20">
    <g>
        <g>
            <path d="M24.892 20H49.68a2.406 2.406 0 0 0 2.406-2.4V2.4A2.4 2.4 0 0 0 49.7 0H24.876a2.4 2.4 0 0 0-2.388 2.4v15.2a2.406 2.406 0 0 0 2.404 2.4zm.251-1.6 8.2-8.883 3.407 3.077a.8.8 0 0 0 1.072 0l3.407-3.077 8.2 8.883zM49.936 1.651a.8.8 0 0 1 .55.749v14.788l-8.07-8.743zM47.607 1.6l-10.321 9.322L26.965 1.6zm-23.521.8a.8.8 0 0 1 .55-.749l7.521 6.793-8.07 8.743z" transform="translate(-22.486)" style="fill:#1e2022"/>
        </g>
    </g>
</svg>
