<svg xmlns="http://www.w3.org/2000/svg" width="100" height="100" viewBox="0 0 56 56">
    <rect width="56" height="56" rx="28" style="fill:#fff"/>
    <path d="M84.969 208.422v-15.531L76 186v19.141q0 3.281 3.281 3.281" transform="translate(-67.688 -165.656)" style="fill:#4285f4"/>
    <path d="m154 160.719 11.156 8.422 11.156-8.422V150l-11.156 8.422L154 150" transform="translate(-137.156 -133.594)" style="fill:#ea4335"/>
    <path d="M354 208.422v-15.531l8.969-6.891v19.141q0 3.281-3.281 3.281" transform="translate(-315.281 -165.656)" style="fill:#34a853"/>
    <path d="m76 128.7 8.969 6.891v-10.714l-3.281-2.516c-2.953-2.3-5.687 0-5.687 2.844" transform="translate(-67.688 -108.142)" style="fill:#c5221f"/>
    <path d="M362.969 128.7 354 135.6v-10.723l3.281-2.516c2.953-2.3 5.688 0 5.688 2.844" transform="translate(-315.281 -108.142)" style="fill:#fbbc04"/>
</svg>
