<svg xmlns="http://www.w3.org/2000/svg" width="25.482" height="24.473">
    <defs>
        <style>
            .cls-1{fill:#111313}
        </style>
    </defs>
    <g id="ic_lockconfirm" transform="translate(108.653 -360.313)">
        <path id="Path_12115" data-name="Path 12115" class="cls-1" d="M-105.568 381.131a1.3 1.3 0 0 1-1.3-1.3v-6.571a1.3 1.3 0 0 1 1.3-1.3l13.182.005h.007a1.286 1.286 0 0 1 1.15.786 6.112 6.112 0 0 1 1.773-.292 3.079 3.079 0 0 0-2.968-2.288h-10.057v-3.487A4.587 4.587 0 0 1-97.9 362.1a4.585 4.585 0 0 1 4.576 4.381h1.8a6.379 6.379 0 0 0-6.369-6.171 6.378 6.378 0 0 0-6.371 6.371v3.483h-1.3a3.089 3.089 0 0 0-3.086 3.085v6.576a3.089 3.089 0 0 0 3.086 3.085h11.804a6.183 6.183 0 0 1-1.207-1.782z"/>
        <path id="Path_12116" data-name="Path 12116" class="cls-1" d="M-89.338 372.453c-.04 0-.078.005-.118.006a6.112 6.112 0 0 0-1.773.292 6.167 6.167 0 0 0-4.276 5.868 6.14 6.14 0 0 0 .538 2.512 6.183 6.183 0 0 0 1.207 1.782 6.145 6.145 0 0 0 4.422 1.873 6.167 6.167 0 0 0 6.167-6.167 6.167 6.167 0 0 0-6.167-6.166zm0 10.833A4.672 4.672 0 0 1-94 378.619a4.672 4.672 0 0 1 4.667-4.666 4.672 4.672 0 0 1 4.667 4.666 4.672 4.672 0 0 1-4.672 4.667z"/>
        <path id="Path_12117" data-name="Path 12117" class="cls-1" d="M-85.852 376.893a.749.749 0 0 0-1.058-.072l-3.077 2.685-1.13-.985a.75.75 0 0 0-1.058.072.75.75 0 0 0 .072 1.058l1.623 1.416a.751.751 0 0 0 .493.185.749.749 0 0 0 .493-.185l3.571-3.116a.749.749 0 0 0 .071-1.058z"/>
    </g>
</svg>
