<svg xmlns="http://www.w3.org/2000/svg" width="22.5" height="22.5">
    <path data-name="Path 12122" d="M-63.107 383.074a1.006 1.006 0 0 1-.383-.074 1 1 0 0 1-.617-.924v-18.224a3.281 3.281 0 0 1 3.278-3.278h15.944a3.282 3.282 0 0 1 3.278 3.278v11.389a3.282 3.282 0 0 1-3.278 3.278h-13.252l-4.263 4.262a1 1 0 0 1-.707.293zm2.278-20.5a1.279 1.279 0 0 0-1.278 1.278v15.808l2.849-2.848a1 1 0 0 1 .707-.293h13.666a1.279 1.279 0 0 0 1.278-1.278v-11.389a1.279 1.279 0 0 0-1.278-1.278z" style="fill:#fff" transform="translate(64.107 -360.574)"/>
</svg>
