<svg xmlns="http://www.w3.org/2000/svg" width="18.371" height="20.743">
    <path d="M6.3 17.85v-.525H2.363A2.366 2.366 0 0 1 0 14.963v-.4a2.669 2.669 0 0 1 1.486-2.4 1.31 1.31 0 0 0 .719-1.063l.468-5.156a6.536 6.536 0 0 1 13.02 0l.468 5.156a1.323 1.323 0 0 0 .72 1.055 2.674 2.674 0 0 1 1.489 2.4v.4a2.365 2.365 0 0 1-2.362 2.363h-3.933v.526a2.888 2.888 0 0 1-5.775 0zm1.575 0a1.313 1.313 0 0 0 2.625 0v-.525H7.875zM4.247 6.09l-.467 5.154a2.875 2.875 0 0 1-1.587 2.323 1.108 1.108 0 0 0-.618 1v.4a.789.789 0 0 0 .788.786h13.65a.789.789 0 0 0 .788-.788v-.4a1.107 1.107 0 0 0-.615-1 2.876 2.876 0 0 1-1.59-2.323l-.467-5.152a4.961 4.961 0 0 0-9.882 0z" transform="translate(0 .006)" style="fill:#1e2022"/>
</svg>
