<svg xmlns="http://www.w3.org/2000/svg" width="19.315" height="22.6">
    <path d="M-105.8 381.061a3.089 3.089 0 0 0 3.086 3.085h13.143a3.089 3.089 0 0 0 3.086-3.085v-6.572a3.089 3.089 0 0 0-3.086-3.085h-10.057v-3.487a4.587 4.587 0 0 1 4.581-4.581 4.586 4.586 0 0 1 4.576 4.381h1.8a6.38 6.38 0 0 0-6.369-6.171 6.378 6.378 0 0 0-6.371 6.371v3.483h-1.3a3.089 3.089 0 0 0-3.086 3.085zm1.785-6.568a1.3 1.3 0 0 1 1.3-1.3l13.182.005h.007a1.289 1.289 0 0 1 1.254 1.29v6.576a1.3 1.3 0 0 1-1.3 1.3h-13.143a1.3 1.3 0 0 1-1.3-1.3z" transform="translate(105.8 -361.546)" style="fill:#161819;fill-rule:evenodd"/>
</svg>
