<svg xmlns="http://www.w3.org/2000/svg" width="22.401" height="22.808">
    <defs>
        <style>
            .cls-1{fill:#161819}
        </style>
    </defs>
    <g id="ic_pending" transform="translate(28.915 -361.805)">
        <path id="Path_12127" data-name="Path 12127" class="cls-1" d="M-11.6 374.435a5.1 5.1 0 0 0-5.088 5.089 5.1 5.1 0 0 0 5.088 5.089 5.1 5.1 0 0 0 5.09-5.089 5.1 5.1 0 0 0-5.09-5.089zm3.875 5.088A3.884 3.884 0 0 1-11.6 383.4a3.877 3.877 0 0 1-3.873-3.873 3.878 3.878 0 0 1 3.873-3.877 3.879 3.879 0 0 1 3.871 3.873z"/>
        <path id="Path_12128" data-name="Path 12128" class="cls-1" d="M-9.642 378.915h-1.353v-1.837a.609.609 0 0 0-.608-.608.608.608 0 0 0-.607.608v2.444a.608.608 0 0 0 .606.607h2.445a.608.608 0 0 0 .607-.608.608.608 0 0 0-.607-.607z"/>
        <path id="Path_12129" data-name="Path 12129" class="cls-1" d="M-17.714 367.909h7.333a.609.609 0 0 0 .608-.608.609.609 0 0 0-.608-.608h-7.333a.609.609 0 0 0-.608.608.609.609 0 0 0 .608.608z"/>
        <path id="Path_12130" data-name="Path 12130" class="cls-1" d="M-17.714 373.613h7.333a.609.609 0 0 0 .608-.608.609.609 0 0 0-.608-.608h-7.333a.609.609 0 0 0-.608.608.609.609 0 0 0 .608.608z"/>
        <path id="Path_12131" data-name="Path 12131" class="cls-1" d="m-20.193 364.82.005-.005-.012-.01a.591.591 0 0 0-.442-.144.6.6 0 0 0-.414.21l-2.423 2.826-1.4-1.052a.6.6 0 0 0-.446-.13.605.605 0 0 0-.407.224.606.606 0 0 0-.13.447.619.619 0 0 0 .25.425l1.862 1.4a.6.6 0 0 0 .364.122.606.606 0 0 0 .462-.212l2.793-3.259a.6.6 0 0 0 .146-.44.592.592 0 0 0-.208-.402z"/>
        <path id="Path_12132" data-name="Path 12132" class="cls-1" d="m-20.158 370.558-.042-.049a.608.608 0 0 0-.856.065l-2.423 2.827-1.4-1.052a.613.613 0 0 0-.446-.13.605.605 0 0 0-.407.224.607.607 0 0 0-.13.447.619.619 0 0 0 .25.425l1.862 1.4a.6.6 0 0 0 .364.122.6.6 0 0 0 .462-.212l2.793-3.259a.6.6 0 0 0 .146-.44.582.582 0 0 0-.173-.368z"/>
        <path id="Path_12133" data-name="Path 12133" class="cls-1" d="m-20.828 376.521-.032-.066-2.619 3.055-1.414-1.059a.608.608 0 0 0-.845.148.609.609 0 0 0 .123.826l1.862 1.4a.6.6 0 0 0 .363.121.607.607 0 0 0 .463-.212l2.794-3.259a.606.606 0 0 0 .144-.441.6.6 0 0 0-.21-.415.6.6 0 0 0-.629-.098z"/>
        <path id="Path_12134" data-name="Path 12134" class="cls-1" d="M-11.675 361.8h-12.078a5.176 5.176 0 0 0-5.162 5.161v12.078a5.176 5.176 0 0 0 5.162 5.161h6.039a.609.609 0 0 0 .608-.608.608.608 0 0 0-.608-.607h-6.039a3.956 3.956 0 0 1-3.946-3.946v-12.073a3.955 3.955 0 0 1 3.946-3.946h12.078a3.955 3.955 0 0 1 3.946 3.946v6.039a.607.607 0 0 0 .607.607.608.608 0 0 0 .608-.607v-6.039a5.176 5.176 0 0 0-5.161-5.166z"/>
    </g>
</svg>
