<?xml version="1.0" encoding="utf-8"?>
<!-- Generator: Adobe Illustrator 26.0.1, SVG Export Plug-In . SVG Version: 6.00 Build 0)  -->
<svg version="1.1" id="Layer_1" xmlns="http://www.w3.org/2000/svg" xmlns:xlink="http://www.w3.org/1999/xlink" x="0px" y="0px"
	 viewBox="0 0 252 190" style="enable-background:new 0 0 252 190;" xml:space="preserve">
<style type="text/css">
	.st0{fill:#E6E6E6;}
</style>
<g>
	<path class="st0" d="M180.5,92.5c-3.7,0.5-6.7,3.8-10,8c-4,5-8.3,12-16,20l-39-55c-4-6-8.1-12.3-15-13c-13-1.3-23.2,20.2-45,53
		c-8.5,12.9-21.2,31-38,52h216l-40-56C191.7,98.9,186.4,91.8,180.5,92.5z"/>
	<circle class="st0" cx="179" cy="47" r="16"/>
	<path class="st0" d="M240,0H12C5.4,0,0,5.4,0,12v151c0,6.6,5.4,12,12,12h228c6.6,0,12-5.4,12-12V12C252,5.4,246.6,0,240,0z
		 M244,163c0,2.2-1.8,4-4,4H12c-2.2,0-4-1.8-4-4V12c0-2.2,1.8-4,4-4h228c2.2,0,4,1.8,4,4V163z"/>
	<path class="st0" d="M224,182H24c-2.2,0-4,1.8-4,4s1.8,4,4,4h200c2.2,0,4-1.8,4-4S226.2,182,224,182z"/>
</g>
</svg>
