<svg id="Layer_1" data-name="Layer 1" xmlns="http://www.w3.org/2000/svg" viewBox="0 0 30 30"><g id="ic_profile" data-name="ic profile"><g id="Path"><path d="M26.86,29.5a1.32,1.32,0,0,1-1.31-1.32V25.25A4.59,4.59,0,0,0,21,20.71H9a4.59,4.59,0,0,0-4.59,4.55v2.92a1.32,1.32,0,1,1-2.63,0V25.25A7.15,7.15,0,0,1,4,20.16a6.92,6.92,0,0,1,5.12-2.08H21a7.2,7.2,0,0,1,7.2,7.16v2.94A1.32,1.32,0,0,1,26.86,29.5Z"/></g><g id="Oval"><path d="M15,14.85A7.22,7.22,0,0,1,7.75,7.68a7.25,7.25,0,0,1,14.5,0A7.22,7.22,0,0,1,15,14.85ZM15,3.14a4.58,4.58,0,0,0-4.61,4.54,4.61,4.61,0,0,0,9.22,0A4.58,4.58,0,0,0,15,3.14Z"/></g></g></svg>