<svg xmlns="http://www.w3.org/2000/svg" width="11.138" height="13.871" viewBox="0 0 11.138 13.871">
    <path data-name="Icon ionic-md-arrow-round-up" d="m7.215 3.29-3-3.089a.681.681 0 0 0-.5-.2h-.009a.681.681 0 0 0-.5.2l-3 3.089a.661.661 0 0 0 0 .966.74.74 0 0 0 1.011 0L2.997 2.4v4.787a.717.717 0 0 0 1.432 0V2.4l1.776 1.857a.74.74 0 0 0 1.011 0 .661.661 0 0 0-.001-.967zM3.922 10.581l3 3.089a.681.681 0 0 0 .5.2h.009a.681.681 0 0 0 .5-.2l3-3.089a.661.661 0 0 0 0-.966.74.74 0 0 0-1.011 0l-1.78 1.856V6.684a.717.717 0 0 0-1.432 0v4.787L4.932 9.614a.74.74 0 0 0-1.011 0 .661.661 0 0 0 .001.967z"/>
</svg>
