<svg xmlns="http://www.w3.org/2000/svg" width="19.764" height="18.4">
    <path data-name="Path 1524" d="m21.617 9.088-1.429-5A1.507 1.507 0 0 0 18.746 3H5.254a1.507 1.507 0 0 0-1.442 1.088l-1.429 5A1.5 1.5 0 0 0 3.826 11H4v7.5A2.5 2.5 0 0 0 6.5 21h11a2.5 2.5 0 0 0 2.5-2.5V11h.174a1.5 1.5 0 0 0 1.442-1.912zM19 18.5a1.5 1.5 0 0 1-1.5 1.5h-11A1.5 1.5 0 0 1 5 18.5V11h14zm1.574-8.7a.5.5 0 0 1-.4.2H3.826a.5.5 0 0 1-.48-.638l1.429-5A.5.5 0 0 1 5.254 4h13.492a.5.5 0 0 1 .48.362l1.429 5a.5.5 0 0 1-.081.439z" transform="translate(-2.118 -2.8)" style="fill:#1e2022;stroke:#1e2022;stroke-width:.4px"/>
</svg>
