<svg xmlns="http://www.w3.org/2000/svg" width="22" height="22.303">
    <defs>
        <style>
            .cls-1{fill:#1e2022}
        </style>
    </defs>
    <g id="ic_support" transform="translate(-1.521)">
        <path id="Path_1533" data-name="Path 1533" class="cls-1" d="M21.64 7.009a9.429 9.429 0 0 0-18.225 0 2.321 2.321 0 0 0-1.894 2.276V11.9a2.321 2.321 0 0 0 1.57 2.193v1.087a5.952 5.952 0 0 0 5.946 5.945h.732a1.927 1.927 0 0 0 1.773 1.175H13.5a1.924 1.924 0 1 0 0-3.849h-1.958a1.927 1.927 0 0 0-1.773 1.177h-.732a4.456 4.456 0 0 1-4.452-4.448v-1.715a.747.747 0 0 0-.747-.747.823.823 0 0 1-.822-.822V9.285a.823.823 0 0 1 .819-.822h.18a.747.747 0 0 0 .732-.6 7.935 7.935 0 0 1 15.557 0 .747.747 0 0 0 .733.6h.163a.823.823 0 0 1 .822.822V11.9a.823.823 0 0 1-.822.822.747.747 0 0 0 0 1.495 2.319 2.319 0 0 0 2.321-2.317V9.285a2.321 2.321 0 0 0-1.881-2.276zm-10.1 12.94h1.96a.43.43 0 1 1 0 .86h-1.958a.43.43 0 0 1 0-.86z"/>
        <path id="Path_1534" data-name="Path 1534" class="cls-1" d="M48.675 36.041a7 7 0 1 0 7 7 7.007 7.007 0 0 0-7-7zm0 12.5a5.5 5.5 0 1 1 5.5-5.5 5.511 5.511 0 0 1-5.5 5.503z" transform="translate(-36.154 -32.45)"/>
    </g>
</svg>
