<svg xmlns="http://www.w3.org/2000/svg" width="22" height="22">
    <path d="M21.39 14.619a11 11 0 0 0 0-7.238.792.792 0 0 0-.035-.1 11 11 0 0 0-20.706 0 .781.781 0 0 0-.035.1 11 11 0 0 0 0 7.238.792.792 0 0 0 .035.1 11 11 0 0 0 20.706 0 .786.786 0 0 0 .035-.1zM11 20.423c-.419 0-1.094-.758-1.659-2.452a17.269 17.269 0 0 1-.65-2.779h4.619a17.283 17.283 0 0 1-.649 2.779c-.561 1.694-1.24 2.452-1.661 2.452zm-2.5-6.807a29.883 29.883 0 0 1 .002-5.232h5c.076.841.116 1.718.116 2.616s-.04 1.775-.116 2.616zM1.579 11a9.4 9.4 0 0 1 .37-2.616h4.972a30.59 30.59 0 0 0 0 5.232H1.948A9.4 9.4 0 0 1 1.579 11zM11 1.577c.419 0 1.094.758 1.659 2.452a17.27 17.27 0 0 1 .649 2.779H8.693a17.267 17.267 0 0 1 .65-2.779c.565-1.694 1.24-2.452 1.657-2.452zm4.081 6.808h4.972a9.439 9.439 0 0 1 0 5.231h-4.97a30.573 30.573 0 0 0 0-5.231zm4.356-1.577H14.9a15.133 15.133 0 0 0-1.437-4.9 9.464 9.464 0 0 1 5.976 4.9zM8.538 1.9A15.133 15.133 0 0 0 7.1 6.808H2.564A9.465 9.465 0 0 1 8.538 1.9zM2.564 15.193H7.1a15.135 15.135 0 0 0 1.437 4.9 9.464 9.464 0 0 1-5.973-4.9zm10.9 4.9a15.133 15.133 0 0 0 1.437-4.9h4.537a9.464 9.464 0 0 1-5.972 4.907z" transform="translate(-.002)" style="fill:#1e2022"/>
</svg>
