<svg id="Layer_1" data-name="Layer 1" xmlns="http://www.w3.org/2000/svg" viewBox="0 0 30 30"><g id="ic_fav" data-name="ic fav"><path d="M15,28.3a1.2,1.2,0,0,1-.87-.38L2.88,16.2a8.73,8.73,0,0,1,0-12l.33-.33a8,8,0,0,1,11.32.33l.47.49.47-.5.33-.32a8,8,0,0,1,11.26.27l.06.06a8.72,8.72,0,0,1,0,12L15.87,27.92A1.19,1.19,0,0,1,15,28.3ZM8.7,4.12A5.58,5.58,0,0,0,4.87,5.64l-.23.24a6.3,6.3,0,0,0,0,8.66L15,25.34,25.37,14.53a6.3,6.3,0,0,0,0-8.6l-.05,0a5.6,5.6,0,0,0-7.9-.24l-.23.24L15.88,7.29a1.22,1.22,0,0,1-.88.37h0a1.19,1.19,0,0,1-.87-.37l-1.35-1.4A5.57,5.57,0,0,0,8.87,4.12Z"/></g></svg>