<svg id="Layer_1" data-name="Layer 1" xmlns="http://www.w3.org/2000/svg" viewBox="0 0 216 132"><defs><style>.cls-1{fill:#dde5f2;}.cls-2{fill:#e4e8f5;}.cls-3{fill:#fff;}.cls-4{fill:#e3e3e3;}.cls-5{fill:#485174;}.cls-6{fill:#252e3c;}.cls-7{fill:#ce171f;}.cls-8{fill:#22283e;}</style></defs><path class="cls-1" d="M10.82,124.17c-13-17.39-13-35.3-6.72-39.95,6.06-4.48,21.94.44,34.65,15.49.3-8.42,3.49-15.48,7.74-16.51,5.16-1.25,13.83,5.85,16.72,19.36,4.36-6.19,11.47-15,16.1-13.45,7.51,2.48,4,30.58,3.47,34.24Z"/><path class="cls-2" d="M196.81,131.46c11.8-15.8,11.83-32.07,6.11-36.29-5.51-4.07-19.93.4-31.47,14.07-.28-7.64-3.17-14.06-7-15-4.68-1.13-12.56,5.32-15.18,17.59-4-5.62-10.42-13.61-14.63-12.22-6.82,2.26-3.59,27.78-3.15,31.11Z"/><path class="cls-1" d="M80,91.87a17.78,17.78,0,0,1,.39,4.19l.09,6.2h0c0,1.18,0,2.36,0,3.55,0,1.7,0,3.39.08,5.09a2.36,2.36,0,0,1-.3,1.46.3.3,0,0,1-.08.08c-.7.78-2.39.85-2.26,1.89.06.54.65.83,1.07,1.17a3,3,0,0,1,.93,2.88,4,4,0,0,1-.22.84l-10.34.64c-.07-.2-.14-.41-.2-.62a14.65,14.65,0,0,1-.42-4.52c0-1.06.15-2.14.22-3.21,0-.43,0-.85,0-1.28a10.73,10.73,0,0,0-.92-5c-.74-1.5-2-2.89-1.89-4.56.1-1.16.89-2.14,1.21-3.26a4.2,4.2,0,0,0,.14-1.62A7.3,7.3,0,0,0,65.94,92c-1.2-1.52-2.74-2.75-3.95-4.27a12.43,12.43,0,0,1-2.69-7.29,4.34,4.34,0,0,1,.64-2.79c.93-1.26,3-1.94,2.82-3.49-.14-1-1.28-1.54-2.07-2.21-2.18-1.87-1.79-5.28-1.21-8.09q1.32-6.3,2.62-12.58c.49-2.38,1.39-5.21,3.75-5.79,1.71-.42,3.47.61,4.58,2A36.61,36.61,0,0,1,73.08,52c1.31,2.2,3.16,4.06,4.28,6.36s1.33,5.37-.5,7.16c-.24.24-.55.56-.42.88s.37.32.61.42c1.38.59,1.83,2.29,2,3.78.12.79.22,1.57.31,2.37a57.21,57.21,0,0,1,0,12.41,13.51,13.51,0,0,0-.12,3.86C79.42,90.14,79.78,91,80,91.87Z"/><path class="cls-3" d="M72.59,100.05c.09,1.86.17,3.75.25,5.69.15,4,.26,8.22.31,12.55,0,.44,0,.89,0,1.33l-.56,0v-1c0-4.73-.18-9.29-.35-13.64-.08-1.87-.16-3.69-.25-5.47-1.24-24-3.89-40.45-3.93-40.68l.56-.09C68.66,59,71.35,75.75,72.59,100.05Z"/><path class="cls-1" d="M105.26,52.16c0,1.86-.23,7.51-1.13,14.88a.51.51,0,0,1-.57.44.49.49,0,0,1-.16,0,.51.51,0,0,0-.69.22.51.51,0,0,0,0,.4l1,2.69c-.54,3.77-1.26,7.86-2.22,12a.51.51,0,0,1-.47.4l-3,.19a.5.5,0,0,0-.48.53.49.49,0,0,0,.15.34L100.38,87c-.76,2.88-1.65,5.76-2.68,8.58a75,75,0,0,1-3.53,8.18.55.55,0,0,1-.34.27l-5,1.23a.5.5,0,0,0-.16.91l2.59,1.74a.51.51,0,0,1,.14.7c-.4.62-.82,1.24-1.24,1.84a34.78,34.78,0,0,1-8.62,8.7l-.81,0v0l0,0a9,9,0,0,1-.72-.78c-1.6-1.88-4.51-6.5-5.22-15.7a.53.53,0,0,1,.08-.33l.22-.31.93-1.35a.51.51,0,0,0-.14-.71.46.46,0,0,0-.19-.08L75,99.78a.52.52,0,0,1-.41-.49,75.64,75.64,0,0,1,.84-12,.53.53,0,0,1,.29-.39l2.2-1a.52.52,0,0,0,.25-.67A.47.47,0,0,0,78,85l-1.67-1a.51.51,0,0,1-.23-.53A44,44,0,0,1,79.41,73a39,39,0,0,1,2.46-4.48.51.51,0,0,1,.54-.22l1.9.44a.51.51,0,0,0,.61-.38.52.52,0,0,0,0-.37l-1-1.78a.52.52,0,0,1,0-.57,40.6,40.6,0,0,1,20.74-14,.51.51,0,0,1,.62.36.38.38,0,0,1,0,.15Z"/><path class="cls-4" d="M71.18,119.61c-2.66-.47-5.46-1-7.49-2.77a14.8,14.8,0,0,1-2.92-4L58,107.91c-1-1.8-2.08-3.88-1.48-5.87.3-1,1-2,.77-3-1.75-.41-3.34,1.11-5.11,1.38-2.21.34-4.18-1.28-5.82-2.78-2-1.79-4.08-4.13-3.45-6.7.1-.39.25-.84,0-1.17a1.22,1.22,0,0,0-1-.37l-2.64-.17a2.38,2.38,0,0,1-1.3-.35,2.39,2.39,0,0,1-.7-1.32q-2.44-8.76-4.9-17.51a3.9,3.9,0,0,1-.13-2.45c.32-.78,1.43-1.25,2-.65a153.47,153.47,0,0,0,18.55,7,8.22,8.22,0,0,1,2.8,1.24c2.11,1.69,2,5,3.55,7.19,2,2.8,6.15,3.4,7.88,6.33a9.49,9.49,0,0,1,.84,5.44c-.17,2.76-.44,5.82,1.26,8,.85,1.08,2.09,1.79,3,2.78a9.32,9.32,0,0,1,2.27,6.37,27.79,27.79,0,0,1-1.08,6.81Z"/><path class="cls-3" d="M97.74,63.91C84.82,76.76,81.32,93.45,80.81,106a84.8,84.8,0,0,0,.48,13.14l-.56,0c-.21-1.84-.41-4.12-.5-6.72-.07-2.07-.07-4.36,0-6.79,0-1.1.12-2.23.23-3.39h0c1-12.1,5.06-27,16.86-38.75Z"/><path class="cls-3" d="M72.94,119.64l-.6,0c-.08-.23-.16-.46-.25-.68-1-2.66-2-5.15-3.08-7.49C55.41,80.77,40.75,75.85,40.59,75.8l.16-.54c.2.06,5.08,1.63,11.86,8.89C57.12,89,63.12,97.08,69.05,110.23c1.18,2.61,2.36,5.42,3.52,8.45l0,.08C72.71,119.05,72.83,119.34,72.94,119.64Z"/><path class="cls-1" d="M190,104.37a12.55,12.55,0,0,1-.62,2.92l-1.25,4.22h0c-.24.81-.48,1.61-.73,2.42l-1,3.45a1.67,1.67,0,0,1-.52.93l-.06,0c-.65.38-1.8.07-1.94.8-.07.38.26.7.48,1a2.2,2.2,0,0,1,0,2.15,2.85,2.85,0,0,1-.33.52l-7.14-1.76c0-.15,0-.31,0-.46a10.62,10.62,0,0,1,.67-3.15c.26-.71.56-1.42.83-2.13.11-.29.21-.57.3-.85a7.55,7.55,0,0,0,.44-3.6c-.18-1.17-.76-2.39-.31-3.49.32-.76,1.06-1.26,1.51-2a3.23,3.23,0,0,0,.44-1.07,5.24,5.24,0,0,0-.32-2.9c-.49-1.28-1.28-2.44-1.77-3.72a8.84,8.84,0,0,1-.28-5.52,3.11,3.11,0,0,1,1-1.75c.9-.65,2.47-.67,2.65-1.76.12-.73-.55-1.31-.94-1.94-1.08-1.72-.08-4,.9-5.73l4.44-8c.84-1.5,2-3.23,3.77-3.12A3.39,3.39,0,0,1,193,72.28a24.51,24.51,0,0,1,.83,3.63c.42,1.77,1.28,3.42,1.56,5.21s-.24,3.92-1.86,4.75c-.22.11-.49.26-.47.51s.18.29.32.41c.81.69.75,1.94.59,3-.08.56-.18,1.12-.3,1.67a40,40,0,0,1-2.65,8.4,9.36,9.36,0,0,0-.89,2.59C190,103.08,190.08,103.73,190,104.37Z"/><path class="cls-3" d="M183.29,108.34c-.33,1.28-.68,2.58-1,3.91-.75,2.75-1.56,5.62-2.45,8.56l-.27.91-.39-.1.19-.61a.11.11,0,0,1,0-.06q1.46-4.83,2.65-9.32.52-1.92,1-3.75c4.25-16.5,5.95-28.22,6-28.38l.4,0C189.33,79.72,187.6,91.62,183.29,108.34Z"/><path class="cls-4" d="M215.57,82.83c-.42,1.26-1.76,5-3.92,9.84a.37.37,0,0,1-.48.18l-.1-.07a.35.35,0,0,0-.51,0,.36.36,0,0,0-.11.26l.08,2c-1.16,2.44-2.52,5.06-4.06,7.69a.36.36,0,0,1-.4.17l-2.09-.52a.35.35,0,0,0-.43.26.3.3,0,0,0,0,.26l1.31,2.43c-1.13,1.79-2.35,3.56-3.64,5.25a52.36,52.36,0,0,1-4.13,4.79.34.34,0,0,1-.28.11l-3.65-.23a.36.36,0,0,0-.31.58l1.39,1.73a.36.36,0,0,1-.05.5c-.4.34-.82.67-1.23,1a24.64,24.64,0,0,1-7.68,4.06l-.56-.14a0,0,0,0,1,0,0s0,0,0,0a6,6,0,0,1-.32-.68c-.69-1.62-1.68-5.36-.21-11.75a.34.34,0,0,1,.13-.2l.21-.16.92-.72a.37.37,0,0,0,.06-.51.4.4,0,0,0-.12-.1l-.41-.22a.35.35,0,0,1-.17-.41,52.85,52.85,0,0,1,3.11-8,.4.4,0,0,1,.28-.21l1.71-.22a.35.35,0,0,0,.31-.4.41.41,0,0,0-.08-.19l-.92-1.06a.36.36,0,0,1-.05-.41,31.6,31.6,0,0,1,4.48-6.34,27,27,0,0,1,2.61-2.52.36.36,0,0,1,.42,0l1.19.7a.37.37,0,0,0,.5-.13.39.39,0,0,0,0-.26l-.31-1.42a.37.37,0,0,1,.14-.38,28.81,28.81,0,0,1,17-5,.35.35,0,0,1,.34.37.36.36,0,0,1,0,.1Z"/><path class="cls-5" d="M178.18,121.28c-1.7-.87-3.48-1.83-4.48-3.46a10.3,10.3,0,0,1-1.12-3.34l-.85-3.91c-.31-1.44-.58-3.07.25-4.29.41-.61,1.09-1.11,1.15-1.85-1.1-.64-2.5,0-3.76-.14-1.56-.24-2.56-1.75-3.35-3.12-.94-1.62-1.89-3.66-.92-5.27.15-.24.35-.51.26-.79s-.34-.36-.58-.46L163,94a1.26,1.26,0,0,1-1-1.46.29.29,0,0,1,0-.09l.4-12.9a2.67,2.67,0,0,1,.43-1.69c.37-.45,1.23-.54,1.49,0a108.58,108.58,0,0,0,11.08,8.66,5.91,5.91,0,0,1,1.63,1.44c1.08,1.59.3,3.79.88,5.62.73,2.31,3.45,3.61,4,6a6.68,6.68,0,0,1-.59,3.86c-.7,1.83-1.53,3.85-.84,5.68a27.65,27.65,0,0,0,1.46,2.53,6.54,6.54,0,0,1,.19,4.79,19.33,19.33,0,0,1-2.18,4.39Z"/><path class="cls-3" d="M208,89.2c-11.47,6-17.38,16.52-20.38,24.9a58.44,58.44,0,0,0-2.46,9l-.4-.1c.25-1.29.6-2.87,1.1-4.65.39-1.42.87-3,1.46-4.59.26-.74.55-1.49.86-2.25h0c3.27-8,9.16-17.22,19.64-22.67Z"/><path class="cls-3" d="M179.37,121.68l-.41-.1,0-.51c-.13-2-.29-3.93-.5-5.73-2.69-23.7-11.57-30.14-11.67-30.21l.22-.33c.13.09,3.09,2.18,6.15,8.53,2,4.23,4.37,11,5.6,21.16.25,2,.45,4.17.59,6.46,0,0,0,0,0,.06Z"/><path class="cls-3" d="M84,107.1V23.26a10.85,10.85,0,0,1,.2-2,10.32,10.32,0,0,1,.6-2,10.11,10.11,0,0,1,1-1.81,11.07,11.07,0,0,1,1.31-1.59,10.41,10.41,0,0,1,1.58-1.3,10.11,10.11,0,0,1,1.81-1,9.65,9.65,0,0,1,2-.6,10.85,10.85,0,0,1,2-.2h83.84a10.69,10.69,0,0,1,2,.2,9.74,9.74,0,0,1,2,.6,10.83,10.83,0,0,1,1.81,1A10.43,10.43,0,0,1,187,17.45a10.15,10.15,0,0,1,1,1.81,11.1,11.1,0,0,1,.6,2,10.85,10.85,0,0,1,.2,2V107.1a10.69,10.69,0,0,1-.2,2,11.2,11.2,0,0,1-.6,2,10.89,10.89,0,0,1-1,1.81,10.57,10.57,0,0,1-2.88,2.88,10.89,10.89,0,0,1-1.81,1,10.39,10.39,0,0,1-2,.59,10,10,0,0,1-2,.21H94.5a10.09,10.09,0,0,1-2-.21,10.29,10.29,0,0,1-2-.59,10.15,10.15,0,0,1-1.81-1,9.85,9.85,0,0,1-1.58-1.3,10.47,10.47,0,0,1-1.31-1.58,10.83,10.83,0,0,1-1-1.81,10.42,10.42,0,0,1-.6-2A10.69,10.69,0,0,1,84,107.1Z"/><path class="cls-6" d="M101.09,66.68h70.67a8,8,0,0,1,0,15.95H101.09a8,8,0,1,1,0-15.95Z"/><path class="cls-6" d="M101.09,88.58h70.67a8,8,0,0,1,0,16H101.09a8,8,0,1,1,0-16Z"/><path class="cls-7" d="M72.74,13.05V10.46a10.85,10.85,0,0,1,.2-2,11.1,11.1,0,0,1,.6-2,9.55,9.55,0,0,1,1-1.81A10.28,10.28,0,0,1,79.2.8a10.55,10.55,0,0,1,2-.6,10.87,10.87,0,0,1,2-.2H94.8a10.69,10.69,0,0,1,2,.2,10.4,10.4,0,0,1,6.66,4.45,10.15,10.15,0,0,1,1,1.81,10.29,10.29,0,0,1,.59,2,10.08,10.08,0,0,1,.2,2v2.59a10.08,10.08,0,0,1-.2,2,10.29,10.29,0,0,1-.59,2,10.15,10.15,0,0,1-1,1.81,10.38,10.38,0,0,1-1.3,1.59,10.49,10.49,0,0,1-1.59,1.3,10.37,10.37,0,0,1-1.8,1,9.74,9.74,0,0,1-2,.6,10.69,10.69,0,0,1-2,.2H83.21a10.87,10.87,0,0,1-2-.2,9.84,9.84,0,0,1-2-.6,10.35,10.35,0,0,1-4.69-3.85,9.55,9.55,0,0,1-1-1.81,11.1,11.1,0,0,1-.6-2A10.85,10.85,0,0,1,72.74,13.05Z"/><path class="cls-7" d="M155,40a18.57,18.57,0,1,1-5.44-13.18A18.58,18.58,0,0,1,155,40Z"/><path class="cls-3" d="M136.42,29.41a7.49,7.49,0,0,1,1.41.14,7.24,7.24,0,0,1,1.35.41,7.37,7.37,0,0,1,1.24.66,7.44,7.44,0,0,1,2,2,7.37,7.37,0,0,1,.66,1.24,7.24,7.24,0,0,1,.41,1.35,7.49,7.49,0,0,1,.14,1.41,7.3,7.3,0,0,1-.14,1.4,6.81,6.81,0,0,1-.41,1.35,7.47,7.47,0,0,1-.66,1.25,7.78,7.78,0,0,1-.9,1.09,7.18,7.18,0,0,1-1.09.89,6.76,6.76,0,0,1-1.24.67,7.24,7.24,0,0,1-1.35.41,7.49,7.49,0,0,1-1.41.14,7.3,7.3,0,0,1-1.4-.14,7.19,7.19,0,0,1-2.6-1.08,7,7,0,0,1-2-2,7.19,7.19,0,0,1-1.08-2.6,7.3,7.3,0,0,1-.14-1.4,7.49,7.49,0,0,1,.14-1.41,7.24,7.24,0,0,1,.41-1.35,6.76,6.76,0,0,1,.67-1.24,7.18,7.18,0,0,1,.89-1.09,7.78,7.78,0,0,1,1.09-.9,7.47,7.47,0,0,1,1.25-.66,6.81,6.81,0,0,1,1.35-.41A7.3,7.3,0,0,1,136.42,29.41Z"/><path class="cls-3" d="M149.71,53a18.62,18.62,0,0,1-26.34.24l-.24-.24a14.11,14.11,0,0,1,12.1-9.3,11.93,11.93,0,0,1,2.39,0A14.1,14.1,0,0,1,149.71,53Z"/><path class="cls-3" d="M81.54,8.9H99a1.23,1.23,0,1,1,0,2.46H81.54a1.23,1.23,0,0,1,0-2.46Z"/><path class="cls-3" d="M92.26,9.68a.93.93,0,0,1,.93.93V16a.93.93,0,1,1-1.85,0V10.61A.93.93,0,0,1,92.26,9.68Z"/><path class="cls-3" d="M77.79,11V9.84a2.45,2.45,0,0,1,.2-1A2.67,2.67,0,0,1,78.55,8a2.88,2.88,0,0,1,.85-.57,2.62,2.62,0,0,1,1-.19h0a2.6,2.6,0,0,1,1,.19,2.76,2.76,0,0,1,.85.57,2.7,2.7,0,0,1,.57.85,2.62,2.62,0,0,1,.2,1V11a2.61,2.61,0,0,1-.77,1.84,2.76,2.76,0,0,1-.85.57,2.6,2.6,0,0,1-1,.19h0a2.62,2.62,0,0,1-1-.19,2.88,2.88,0,0,1-.85-.57A2.57,2.57,0,0,1,78,12,2.43,2.43,0,0,1,77.79,11Z"/><path class="cls-3" d="M96.92,9.45a.93.93,0,0,1,.93.93v5.33a.93.93,0,0,1-1.86,0V10.38A.93.93,0,0,1,96.92,9.45Z"/><path class="cls-8" d="M43.47,98.52v-16a2.81,2.81,0,0,1,2.82-2.81H62.66a2.81,2.81,0,0,1,2.82,2.81v16h6.9v-16a9.74,9.74,0,0,0-9.72-9.72H46.29a9.73,9.73,0,0,0-9.72,9.72v16Z"/><path class="cls-3" d="M30.91,124.34v-25a3.93,3.93,0,0,1,.09-.84,3.78,3.78,0,0,1,.24-.81,3.84,3.84,0,0,1,.4-.75,4.32,4.32,0,0,1,.54-.66,4.07,4.07,0,0,1,.65-.53,3.87,3.87,0,0,1,.75-.4,4.47,4.47,0,0,1,.81-.25,4,4,0,0,1,.84-.08H73.71a4,4,0,0,1,.85.08,5,5,0,0,1,.81.25,3.53,3.53,0,0,1,.74.4,3.74,3.74,0,0,1,.66.53,4.32,4.32,0,0,1,.54.66A4.2,4.2,0,0,1,78,98.52a3.92,3.92,0,0,1,.08.84v25a3.92,3.92,0,0,1-.08.84,4,4,0,0,1-.64,1.56,4.32,4.32,0,0,1-.54.66,3.74,3.74,0,0,1-.66.53,3.53,3.53,0,0,1-.74.4,5,5,0,0,1-.81.25,4,4,0,0,1-.85.08H35.23a4,4,0,0,1-.84-.08,4.47,4.47,0,0,1-.81-.25,3.87,3.87,0,0,1-.75-.4,4.07,4.07,0,0,1-.65-.53,4.32,4.32,0,0,1-.54-.66,4,4,0,0,1-.64-1.56A3.93,3.93,0,0,1,30.91,124.34Z"/><path class="cls-7" d="M51.93,117.23V102.5a2.5,2.5,0,0,1,.19-1,2.5,2.5,0,0,1,1.38-1.38,2.5,2.5,0,0,1,1-.19h0a2.52,2.52,0,0,1,1,.19,2.42,2.42,0,0,1,.82.55,2.59,2.59,0,0,1,.56.83,2.5,2.5,0,0,1,.19,1v14.73a2.52,2.52,0,0,1-.19,1,2.68,2.68,0,0,1-1.38,1.38,2.52,2.52,0,0,1-1,.19h0a2.5,2.5,0,0,1-1-.19,2.59,2.59,0,0,1-.83-.56,2.42,2.42,0,0,1-.55-.82A2.52,2.52,0,0,1,51.93,117.23Z"/><path class="cls-7" d="M54.47,100a5.07,5.07,0,0,1,1,.1,5.65,5.65,0,0,1,1,.3,5.27,5.27,0,0,1,.91.48,6.38,6.38,0,0,1,.8.66,5,5,0,0,1,.65.8,5.32,5.32,0,0,1,.49.91,5.65,5.65,0,0,1,.3,1,5,5,0,0,1,.1,1,5.07,5.07,0,0,1-.1,1,5.65,5.65,0,0,1-.3,1,5.32,5.32,0,0,1-.49.91,5,5,0,0,1-1.45,1.45,6.12,6.12,0,0,1-.91.49,5.65,5.65,0,0,1-1,.3,5.3,5.3,0,0,1-2,0,5.65,5.65,0,0,1-1-.3,6.12,6.12,0,0,1-.91-.49,5,5,0,0,1-.8-.65,5.54,5.54,0,0,1-.65-.8,4.71,4.71,0,0,1-.49-.91,5.65,5.65,0,0,1-.3-1,5.07,5.07,0,0,1-.1-1,5,5,0,0,1,.1-1,5.65,5.65,0,0,1,.3-1,4.71,4.71,0,0,1,.49-.91,5,5,0,0,1,.65-.8,5.73,5.73,0,0,1,.8-.66,5.27,5.27,0,0,1,.91-.48,5.65,5.65,0,0,1,1-.3A5,5,0,0,1,54.47,100Z"/></svg>