<svg xmlns="http://www.w3.org/2000/svg" width="209.522" height="154.038" viewBox="0 0 209.522 154.038">
  <g id="ic_privacy" transform="translate(0 0)">
    <path id="Path_12166" data-name="Path 12166" d="M971.738,713.68V696.188S978.555,708.589,971.738,713.68Z" transform="translate(-777.092 -559.642)" fill="#f1f1f1"/>
    <path id="Path_12167" data-name="Path 12167" d="M933.075,731.423,920.19,719.594S933.935,722.959,933.075,731.423Z" transform="translate(-738.008 -577.388)" fill="#f1f1f1"/>
    <path id="Path_12168" data-name="Path 12168" d="M743.238,555.983a2.2,2.2,0,0,1,2.382-2.387l2.323-4.457,3.053.751-3.369,6.247a2.211,2.211,0,0,1-4.389-.155Z" transform="translate(-603.836 -448.149)" fill="#ffb7b7"/>
    <path id="Path_12169" data-name="Path 12169" d="M621.951,594.372h-2.576l-1.225-9.935h3.8Z" transform="translate(-468.684 -443.122)" fill="#ffb7b7"/>
    <path id="Path_12170" data-name="Path 12170" d="M777.283,756.858h-8.305v-.105a3.233,3.233,0,0,1,3.232-3.233h5.073Z" transform="translate(-623.358 -603.111)" fill="#2f2e41"/>
    <path id="Path_12171" data-name="Path 12171" d="M699.852,587.512l-2.485.678-3.8-9.263,3.668-1Z" transform="translate(-525.867 -438.186)" fill="#ffb7b7"/>
    <path id="Path_12172" data-name="Path 12172" d="M866.053,748.19l-8.013,2.185-.028-.1a3.233,3.233,0,0,1,2.268-3.969h0l4.894-1.335Z" transform="translate(-690.778 -596.628)" fill="#2f2e41"/>
    <path id="Path_12173" data-name="Path 12173" d="M610.394,446.69,609.109,466.2l2.76,21.891,4.521-1.38.19-19.559,3.617-11.279L630.9,486l4.9-1.808-4.045-19.559-2.284-18.369Z" transform="translate(-461.829 -338.357)" fill="#2f2e41"/>
    <path id="Path_12174" data-name="Path 12174" d="M792.424,437.806l-7.613,1.123-2.743,2.712-.852,9.746.529,8.633-2.2,15.223s5.544-3.078,9.841.775,10.309.681,10.433-1.882Z" transform="translate(-631.367 -363.736)" fill="#cbcbcb"/>
    <path id="Path_12175" data-name="Path 12175" d="M816.834,449.586v-.011l3.782-12.328.049,0c.269-.018,6.61-.391,8.028,2.74l.007.015-.431,12.811.593,20.064-11.727,2.54-.085.019Z" transform="translate(-659.643 -363.293)" fill="#ce171f"/>
    <path id="Path_12176" data-name="Path 12176" d="M783.187,452.063l.694-10.451c-4.934.307-4.86,3.805-4.854,3.958l-.054,15.632-.988,16.724,3.593-.269Z" transform="translate(-630.187 -366.621)" fill="#ce171f"/>
    <path id="Path_12177" data-name="Path 12177" d="M753.485,513.99l4.381-10.167,3.058-5.615,1.6,10.129-5.543,8.314Z" transform="translate(-611.612 -409.533)" fill="#ce171f"/>
    <path id="Path_12178" data-name="Path 12178" d="M828.2,531.854a2.2,2.2,0,0,1,2.98-1.578l3.534-3.573,2.7,1.618-5.062,4.976a2.211,2.211,0,0,1-4.148-1.443Z" transform="translate(-668.219 -431.138)" fill="#ffb7b7"/>
    <path id="Path_12179" data-name="Path 12179" d="M840.651,468.631l7.206-7.9-4.77-6.806.491-3.328,2.811-3.473.055.071c.3.388,7.341,9.536,7.544,13s-9.919,12.269-10.35,12.642l-.06.052Z" transform="translate(-677.701 -370.797)" fill="#ce171f"/>
    <circle id="Ellipse_127" data-name="Ellipse 127" cx="5.122" cy="5.122" r="5.122" transform="translate(151.542 62.971)" fill="#ffb7b7"/>
    <path id="Path_12180" data-name="Path 12180" d="M802.107,387.231l.248-.5-1.249-.621a3.662,3.662,0,0,0-3.872-1.612c-2.494.63-3.616,1.007-3.616,1.007l-1.246.627.625.622-1.122.377.75.372-.872.5.469,2.57s.78-1.949,2.279-1.2,4.241-.385,4.241-.385l2.382,4.611s.491-1.616,1.368-1.185C802.493,392.412,804.732,388.846,802.107,387.231Z" transform="translate(-640.626 -323.232)" fill="#2f2e41"/>
    <path id="Path_12181" data-name="Path 12181" d="M270.268,224.466l-77.883,21.479-25.647-92.995,77.883-21.479Z" transform="translate(-166.738 -131.472)" fill="#fff"/>
    <path id="Path_12182" data-name="Path 12182" d="M270.268,224.466l-77.883,21.479-25.647-92.995,77.883-21.479ZM193.38,244.192l75.135-20.721-24.889-90.247-75.135,20.721Z" transform="translate(-166.738 -131.472)" fill="#f1f1f1"/>
    <path id="Path_12183" data-name="Path 12183" d="M336.367,235.913,316.844,241.3a1.078,1.078,0,0,1-1.325-.752l-5.384-19.523a1.078,1.078,0,0,1,.752-1.325l19.523-5.384a1.078,1.078,0,0,1,1.325.752l5.384,19.523A1.078,1.078,0,0,1,336.367,235.913ZM311,220.113a.647.647,0,0,0-.451.795l5.384,19.523a.647.647,0,0,0,.795.451l19.523-5.384a.647.647,0,0,0,.451-.795L331.32,215.18a.647.647,0,0,0-.795-.451Z" transform="translate(-275.433 -194.253)" fill="#e5e5e5"/>
    <path id="Path_12184" data-name="Path 12184" d="M316.327,252.85,296.8,258.234a.971.971,0,0,1-1.192-.677l-5.384-19.523a.971.971,0,0,1,.677-1.192l19.523-5.384a.971.971,0,0,1,1.192.677L317,251.658A.971.971,0,0,1,316.327,252.85Z" transform="translate(-260.342 -207.255)" fill="#ce171f"/>
    <rect id="Rectangle_202" data-name="Rectangle 202" width="56.515" height="2.184" transform="translate(24.12 63.285) rotate(-15.418)" fill="#f1f1f1"/>
    <rect id="Rectangle_203" data-name="Rectangle 203" width="56.515" height="2.184" transform="translate(25.634 68.774) rotate(-15.418)" fill="#f1f1f1"/>
    <rect id="Rectangle_204" data-name="Rectangle 204" width="56.515" height="2.184" transform="translate(27.148 74.263) rotate(-15.418)" fill="#f1f1f1"/>
    <rect id="Rectangle_205" data-name="Rectangle 205" width="56.515" height="2.184" transform="translate(29.812 83.925) rotate(-15.418)" fill="#f1f1f1"/>
    <rect id="Rectangle_206" data-name="Rectangle 206" width="56.515" height="2.184" transform="translate(31.326 89.414) rotate(-15.418)" fill="#f1f1f1"/>
    <rect id="Rectangle_207" data-name="Rectangle 207" width="56.515" height="2.184" transform="translate(32.84 94.903) rotate(-15.418)" fill="#f1f1f1"/>
    <path id="Path_12185" data-name="Path 12185" d="M444.678,301.127H363.887V204.661h80.791Z" transform="translate(-316.217 -186.964)" fill="#fff"/>
    <path id="Path_12186" data-name="Path 12186" d="M444.678,301.127H363.887V204.661h80.791ZM365.312,299.7h77.941V206.086h-77.94Z" transform="translate(-316.217 -186.964)" fill="#e5e5e5"/>
    <rect id="Rectangle_208" data-name="Rectangle 208" width="46.191" height="2.184" transform="translate(67.56 59.166)" fill="#ce171f"/>
    <rect id="Rectangle_209" data-name="Rectangle 209" width="46.191" height="2.184" transform="translate(67.56 64.844)" fill="#ce171f"/>
    <rect id="Rectangle_210" data-name="Rectangle 210" width="46.191" height="2.184" transform="translate(67.56 70.523)" fill="#ce171f"/>
    <circle id="Ellipse_128" data-name="Ellipse 128" cx="1.425" cy="1.425" r="1.425" transform="translate(62.379 59.153)" fill="#ce171f"/>
    <rect id="Rectangle_211" data-name="Rectangle 211" width="46.191" height="2.184" transform="translate(67.56 34.699)" fill="#e5e5e5"/>
    <rect id="Rectangle_212" data-name="Rectangle 212" width="46.191" height="2.184" transform="translate(67.56 40.377)" fill="#e5e5e5"/>
    <rect id="Rectangle_213" data-name="Rectangle 213" width="46.191" height="2.184" transform="translate(67.56 46.055)" fill="#e5e5e5"/>
    <circle id="Ellipse_129" data-name="Ellipse 129" cx="1.425" cy="1.425" r="1.425" transform="translate(62.379 34.448)" fill="#e5e5e5"/>
    <rect id="Rectangle_214" data-name="Rectangle 214" width="46.191" height="2.184" transform="translate(67.56 83.871)" fill="#e5e5e5"/>
    <rect id="Rectangle_215" data-name="Rectangle 215" width="46.191" height="2.184" transform="translate(67.56 89.549)" fill="#e5e5e5"/>
    <rect id="Rectangle_216" data-name="Rectangle 216" width="46.191" height="2.184" transform="translate(67.56 95.227)" fill="#e5e5e5"/>
    <circle id="Ellipse_130" data-name="Ellipse 130" cx="1.425" cy="1.425" r="1.425" transform="translate(62.379 83.62)" fill="#e5e5e5"/>
    <circle id="Ellipse_131" data-name="Ellipse 131" cx="16.513" cy="16.513" r="16.513" transform="translate(108.176 89.443)" fill="#ce171f"/>
    <path id="Path_12187" data-name="Path 12187" d="M665.52,541.066v-3.16a4.575,4.575,0,0,0-9.15,0v3.16a2.379,2.379,0,0,0-2.272,2.375v7.466h13.694v-7.466A2.379,2.379,0,0,0,665.52,541.066Zm-4.575-6.124a2.968,2.968,0,0,1,2.964,2.964v3.154h-5.928v-3.154A2.968,2.968,0,0,1,660.945,534.943Z" transform="translate(-536.256 -436.164)" fill="#fff"/>
    <path id="Path_12188" data-name="Path 12188" d="M679.786,576.708a1.231,1.231,0,1,0-1.923,1.017V580.4h1.385v-2.675a1.229,1.229,0,0,0,.539-1.017Z" transform="translate(-553.866 -468.117)" fill="#ce171f"/>
    <path id="Path_12189" data-name="Path 12189" d="M742.626,766.606H650.5a.242.242,0,0,1,0-.484h92.125a.242.242,0,0,1,0,.484Z" transform="translate(-533.346 -612.666)" fill="#cbcbcb"/>
  </g>
</svg>
