<svg xmlns="http://www.w3.org/2000/svg" width="156.278" height="143.951" viewBox="0 0 156.278 143.951">
  <g id="ic_terms" transform="translate(0 -0.001)">
    <path id="Path_12139" data-name="Path 12139" d="M411.727,237.026h-3.393v-.493h3.354a4.124,4.124,0,0,0,3.121-1.724c2.175-2.64,3.961-9.174.119-25.313a97.77,97.77,0,0,1,1.235-48.11,2.4,2.4,0,0,0-2.311-3.067h-49.9a2.413,2.413,0,0,0-1.946.991c-.887,1.219-2.1,3.562-2.864,7.8l-.485-.087c.778-4.328,2.034-6.74,2.951-8a2.907,2.907,0,0,1,2.345-1.194h49.9a2.9,2.9,0,0,1,2.785,3.7,97.26,97.26,0,0,0-1.229,47.859c3.9,16.367,2.023,23.042-.234,25.761A4.669,4.669,0,0,1,411.727,237.026Z" transform="translate(-339.969 -157.825)" fill="#e6e6e6"/>
    <path id="Path_12140" data-name="Path 12140" d="M375.227,273.526h-3.393v-.493h3.354a4.125,4.125,0,0,0,3.121-1.724c2.175-2.64,3.961-9.174.119-25.313a97.769,97.769,0,0,1,1.235-48.11,2.4,2.4,0,0,0-2.311-3.067h-49.9a2.413,2.413,0,0,0-1.946.991c-.887,1.219-2.1,3.562-2.864,7.8l-.485-.087c.778-4.328,2.034-6.74,2.951-8a2.907,2.907,0,0,1,2.345-1.194h49.9a2.9,2.9,0,0,1,2.785,3.7,97.259,97.259,0,0,0-1.229,47.859c3.9,16.367,2.023,23.042-.234,25.761A4.669,4.669,0,0,1,375.227,273.526Z" transform="translate(-312.46 -185.334)" fill="#ccc"/>
    <path id="Path_12141" data-name="Path 12141" d="M336.582,310.026H287.4a2.895,2.895,0,0,1-2.692-3.967c1.783-4.454,4.183-15.14.229-36.666-4.669-25.418-.489-34.6,1.525-37.374a2.907,2.907,0,0,1,2.345-1.194h49.9a2.9,2.9,0,0,1,2.785,3.7,97.26,97.26,0,0,0-1.229,47.859c3.9,16.367,2.023,23.042-.234,25.761A4.669,4.669,0,0,1,336.582,310.026ZM288.8,231.318a2.413,2.413,0,0,0-1.946.991c-1.976,2.718-6.073,11.765-1.439,37,3.777,20.563,1.945,31.437-.257,36.938a2.362,2.362,0,0,0,.241,2.233,2.4,2.4,0,0,0,1.994,1.058h49.146a4.119,4.119,0,0,0,3.121-1.724c2.175-2.64,3.961-9.174.119-25.313a97.77,97.77,0,0,1,1.235-48.11,2.4,2.4,0,0,0-2.311-3.067Z" transform="translate(-282.806 -212.842)" fill="#3f3d56"/>
    <path id="Path_12142" data-name="Path 12142" d="M349.407,308.767H310.238a1.971,1.971,0,1,1,0-3.942h39.169a1.971,1.971,0,0,1,0,3.942Z" transform="translate(-301.995 -268.612)" fill="#ce171f"/>
    <path id="Path_12143" data-name="Path 12143" d="M349.407,342.767H310.238a1.971,1.971,0,1,1,0-3.942h39.169a1.971,1.971,0,0,1,0,3.942Z" transform="translate(-301.995 -294.236)" fill="#ccc"/>
    <path id="Path_12144" data-name="Path 12144" d="M349.407,376.767H310.238a1.971,1.971,0,1,1,0-3.942h39.169a1.971,1.971,0,0,1,0,3.942Z" transform="translate(-301.995 -319.86)" fill="#ccc"/>
    <path id="Path_12145" data-name="Path 12145" d="M361.407,410.767H322.238a1.971,1.971,0,1,1,0-3.941h39.169a1.971,1.971,0,1,1,0,3.941Z" transform="translate(-311.039 -345.485)" fill="#ccc"/>
    <path id="Path_12146" data-name="Path 12146" d="M361.407,444.767H322.238a1.971,1.971,0,1,1,0-3.942h39.169a1.971,1.971,0,0,1,0,3.942Z" transform="translate(-311.039 -371.109)" fill="#ccc"/>
    <path id="Path_12147" data-name="Path 12147" d="M328.714,274.767H310.238a1.971,1.971,0,1,1,0-3.941h18.476a1.971,1.971,0,1,1,0,3.941Z" transform="translate(-301.995 -242.988)" fill="#ce171f"/>
    <path id="Path_12148" data-name="Path 12148" d="M379.368,492.6c.4-1.684,2.266-2.236,3.793-2.174a16.191,16.191,0,0,1,2.86.453c.981.22,1.953.48,2.92.755,1.773.506,3.528,1.117,5.331,1.513a9.26,9.26,0,0,0,4.628.068,4.389,4.389,0,0,0,3.05-2.992,3,3,0,0,0-1.491-3.563,2.487,2.487,0,0,0-3.406,1.031,3.743,3.743,0,0,0,1.092,4.178,12.236,12.236,0,0,0,2.029,1.541,7.557,7.557,0,0,0,2.43,1.088,3.509,3.509,0,0,0,3.858-1.506,2.545,2.545,0,0,0,.289-.994c.043-.473-.7-.47-.739,0-.125,1.356-1.712,1.991-2.9,1.842a5.894,5.894,0,0,1-2.248-.872A13.172,13.172,0,0,1,399,491.656c-1.007-.871-1.951-2.306-1.275-3.665a1.847,1.847,0,0,1,2.859-.382,2.6,2.6,0,0,1,.171,3.462,4.331,4.331,0,0,1-3.492,1.665,13.656,13.656,0,0,1-4.226-.662c-1.7-.484-3.389-1.025-5.1-1.48-.971-.258-1.95-.492-2.939-.673a9.7,9.7,0,0,0-2.85-.2,3.86,3.86,0,0,0-3.5,2.684C378.546,492.868,379.259,493.066,379.368,492.6Z" transform="translate(-355.035 -405.44)" fill="#3f3d56"/>
    <path id="Path_12149" data-name="Path 12149" d="M688.067,610.055a112.827,112.827,0,0,0,1.064,14.5c.023.169.049.337.072.506l45.426-.254c.133-.168.265-.337.392-.509.424-.568.822-1.152,1.186-1.756,1.754-2.911,2.557-6.319,1.752-8.671l-.014-.037a4.127,4.127,0,0,0-.805-1.4c-1.835-2.065-5.544-1.721-8.91-.054,3.019-3.3,5.423-7.475,5.606-11.2.179-3.631-1.719-6.224-3.778-8.428-.068-.073-.135-.144-.2-.215-.033-.036-.068-.071-.1-.107-1.607-1.68-3.48-3.336-6.19-3.135-2.973.22-6.27,2.711-8.581,5.612a48.531,48.531,0,0,0-5.4,9.41,37.977,37.977,0,0,1-5.747,9.255c3.388-4.285,6.12-9.161,7.129-13.9s.121-9.3-2.9-11.53a7.062,7.062,0,0,0-3.094-1.248c-.13-.022-.263-.039-.4-.055a12.4,12.4,0,0,0-8.972,2.96,20.655,20.655,0,0,0-6.374,9.9A33.751,33.751,0,0,0,688.067,610.055Z" transform="translate(-588.23 -481.108)" fill="#f2f2f2"/>
    <path id="Path_12150" data-name="Path 12150" d="M808.729,707.706l.869,0q.414-.259.831-.511c.172-.109.347-.214.521-.32q4.322-2.64,8.7-5.064t8.788-4.629a.364.364,0,0,0,.209-.416.1.1,0,0,0-.015-.03c-.041-.077-.133-.109-.267-.043-.361.181-.724.362-1.085.547q-4.428,2.24-8.818,4.7t-8.724,5.143l-.182.113Z" transform="translate(-679.171 -563.914)" fill="#fff"/>
    <path id="Path_12151" data-name="Path 12151" d="M763.264,642.583l.537,0,.361-.509L772.7,630.1q6.989-9.8,13.974-19.6a.347.347,0,0,0,.06-.118c.04-.145-.066-.23-.2-.215a.408.408,0,0,0-.284.181l-7.835,10.99-13.9,19.5-.884,1.24C763.5,642.244,763.383,642.413,763.264,642.583Z" transform="translate(-644.906 -498.728)" fill="#fff"/>
    <path id="Path_12152" data-name="Path 12152" d="M714.635,621.738c.027.905.087,1.8.166,2.679l.046.506.564,0c-.017-.169-.034-.338-.05-.506-.119-1.275-.2-2.564-.215-3.889a54.252,54.252,0,0,1,1.068-10.936,68.078,68.078,0,0,1,3.308-11.361,78.025,78.025,0,0,1,5.412-11.241.3.3,0,0,0,.05-.2c-.023-.161-.237-.208-.4-.055a.462.462,0,0,0-.081.1q-.39.671-.766,1.345a77.972,77.972,0,0,0-5.18,11.28,67.765,67.765,0,0,0-3.084,11.378A53.525,53.525,0,0,0,714.635,621.738Z" transform="translate(-608.244 -481.002)" fill="#fff"/>
    <path id="Path_12153" data-name="Path 12153" d="M491.133,508.891a.616.616,0,0,1,.336-1.086,10.172,10.172,0,0,1,3.989.409l13.134,4.056a1.355,1.355,0,1,1-.8,2.589L494.657,510.8a10.172,10.172,0,0,1-3.525-1.912Z" transform="translate(-439.646 -421.553)" fill="#3f3d56"/>
    <path id="Path_12154" data-name="Path 12154" d="M699.8,531.51a2.646,2.646,0,0,1-1.2-3.877l-2.251-11.773,5.738-.447.346,11.516a2.661,2.661,0,0,1-2.634,4.581Z" transform="translate(-594.477 -427.322)" fill="#ffb8b8"/>
    <path id="Path_12155" data-name="Path 12155" d="M676.739,456.867l-5.844-27.217a4.311,4.311,0,0,1,8.43-1.81l5.844,27.216a1.11,1.11,0,0,1-.851,1.317l-6.262,1.345A1.108,1.108,0,0,1,676.739,456.867Z" transform="translate(-575.218 -358.755)" fill="#74232e"/>
    <path id="Path_12156" data-name="Path 12156" d="M359.535,536.425h-3.02l-1.437-11.649h4.458Z" transform="translate(-267.607 -395.5)" fill="#ffb8b8"/>
    <path id="Path_12157" data-name="Path 12157" d="M340.934,568.561h5.824v3.667h-9.492A3.667,3.667,0,0,1,340.934,568.561Z" transform="translate(-254.183 -428.498)" fill="#2f2e41"/>
    <path id="Path_12158" data-name="Path 12158" d="M400.535,535.425h-3.02l-1.437-11.649h4.458Z" transform="translate(-298.507 -394.746)" fill="#ffb8b8"/>
    <path id="Path_12159" data-name="Path 12159" d="M381.934,567.561h5.824v3.667h-9.492A3.667,3.667,0,0,1,381.934,567.561Z" transform="translate(-285.083 -427.745)" fill="#2f2e41"/>
    <path id="Path_12160" data-name="Path 12160" d="M629.314,594.884a1.1,1.1,0,0,1-.4-.754l-3.511-38.622a1.109,1.109,0,0,1,1.063-1.208l17.609-.66a1.109,1.109,0,0,1,1.149,1.148l-1.408,38.473a1.111,1.111,0,0,1-1.007,1.063l-3.551.323a1.108,1.108,0,0,1-1.206-1.03l-1.63-24.442a.354.354,0,0,0-.368-.345h0a.354.354,0,0,0-.368.348l-1.458,24.606a1.1,1.1,0,0,1-1,1.037l-3.1.31a1.1,1.1,0,0,1-.816-.248Z" transform="translate(-541.005 -456.132)" fill="#2f2e41"/>
    <circle id="Ellipse_126" data-name="Ellipse 126" cx="6.05" cy="6.05" r="6.05" transform="translate(89.033 47.89)" fill="#ffb8b8"/>
    <path id="Path_12161" data-name="Path 12161" d="M619.8,446.779a1.1,1.1,0,0,1-.259-.906c1.117-6.79.487-16.77-.237-23.946A10.888,10.888,0,0,1,623.8,412l3.16-2.708a1.126,1.126,0,0,1,.753-.267l7.85.224a1.1,1.1,0,0,1,.752.325l1.213,2.686.013.009a10.857,10.857,0,0,1,4.413,9.285l-1.155,23.88a1.115,1.115,0,0,1-1.071,1.054l-19.054.67h-.037a1.106,1.106,0,0,1-.834-.378Z" transform="translate(-536.37 -347.141)" fill="#ce171f"/>
    <path id="Path_12162" data-name="Path 12162" d="M528.707,492.609a2.646,2.646,0,0,1,3.046-2.681l9.821-6.873,2.757,5.052-10.365,5.029a2.661,2.661,0,0,1-5.258-.528Z" transform="translate(-468.13 -402.936)" fill="#ffb8b8"/>
    <path id="Path_12163" data-name="Path 12163" d="M547.788,451.854a1.1,1.1,0,0,1-.726-.44l-3.79-5.163a1.11,1.11,0,0,1,.238-1.55l22.441-16.471a4.311,4.311,0,0,1,5.1,6.951l-22.441,16.471a1.1,1.1,0,0,1-.654.215A1.134,1.134,0,0,1,547.788,451.854Z" transform="translate(-478.946 -360.987)" fill="#ce171f"/>
    <path id="Path_12164" data-name="Path 12164" d="M647.2,354.6a3.216,3.216,0,0,0,.071-3.576,6.89,6.89,0,0,0-2.862-2.436,37.118,37.118,0,0,1-3.378-1.752c-1.059-.7-1.012-3.667-1.294-4.905l.672.224c-.258-.331-.341-1.307-.6-1.638.76.075,1.344.8,2.1.871l-.438-1.177c2.6-.161,4.224,1.65,6.829,1.489a5.861,5.861,0,0,1,3.753.609,4.966,4.966,0,0,1,1.7,2.835,9.563,9.563,0,0,1-.376,7.05c-1.136,2.129-3.753,3.563-6.04,2.794Z" transform="translate(-551.811 -295.273)" fill="#2f2e41"/>
    <path id="Path_12165" data-name="Path 12165" d="M534.44,740.318H628.3a.246.246,0,0,0,0-.493H534.44a.246.246,0,0,0,0,.493Z" transform="translate(-472.266 -596.452)" fill="#3f3d56"/>
  </g>
</svg>
