<svg id="Component_4_1" data-name="Component 4 – 1" xmlns="http://www.w3.org/2000/svg" width="176.5" height="99" viewBox="0 0 176.5 99">
    <defs>
        <clipPath id="clip-path">
            <path id="Rectangle_224" data-name="Rectangle 224" class="cls-1" d="M0 0h176.5v86.107H0z"/>
        </clipPath>
        <clipPath id="clip-path-2">
            <path id="Rectangle_223" data-name="Rectangle 223" class="cls-1" d="M0 0h80.001v80.004H0z"/>
        </clipPath>
        <style>
            .cls-1{fill:none}
        </style>
    </defs>
    <g id="Group_2780" data-name="Group 2780" transform="translate(0 12.893)">
        <g id="Group_2779" data-name="Group 2779" style="clip-path:url(#clip-path)">
            <path id="Path_12295" data-name="Path 12295" d="M90.753.322c17.29-2.783 96.424 12.72 80.132 35.373-10.77 14.976 12.108 18.4 3.726 30.227S58 97.929 73.463 77.056-14.814 60.319 1.81 34.843 54.462 6.164 90.753.322" transform="translate(0 .001)" style="fill:#e6e6e6"/>
        </g>
    </g>
    <g id="Group_2778" data-name="Group 2778" transform="translate(57)">
        <g id="Group_2777" data-name="Group 2777" style="clip-path:url(#clip-path-2)">
            <path id="Path_12292" data-name="Path 12292" d="M43.751 65.254H36.5a2.435 2.435 0 0 1-2.5-2l-1.25-4.5-1-.5-4 2.25a2.313 2.313 0 0 1-3-.5l-5.25-5.25a2.659 2.659 0 0 1-.5-3l2.25-4-.5-1-4.5-1.25a2.692 2.692 0 0 1-2-2.5v-7.25a2.435 2.435 0 0 1 2-2.5l4.5-1.25.5-1L19 27a2.313 2.313 0 0 1 .5-3l5.25-5.25a2.659 2.659 0 0 1 3-.5l4 2.25 1-.5L34 15.5a2.692 2.692 0 0 1 2.5-2h7.25a2.435 2.435 0 0 1 2.5 2L47.5 20l1 .5 4-2.25a2.313 2.313 0 0 1 3 .5L60.751 24a2.659 2.659 0 0 1 .5 3L59 31l.5 1 4.5 1.25a2.692 2.692 0 0 1 2 2.5V43a2.435 2.435 0 0 1-2 2.5l-4.5 1.25-.5 1 2.25 4a2.313 2.313 0 0 1-.5 3L55.5 60a2.659 2.659 0 0 1-3 .5l-4-2.25-1 .5-1.25 4.5a2.875 2.875 0 0 1-2.5 2m-5.5-5h3.5L43 55l1.25-.5c1-.25 1.75-.75 2.75-1l1.25-.75L53 55.5l2.5-2.5-2.75-4.75.75-1.25a8.95 8.95 0 0 0 1-2.75L55 43l5.25-1.25v-3.5L55 37l-.5-1.25c-.25-1-.75-1.75-1-2.75l-.75-1.25L55.5 27 53 24.5l-4.75 2.75L47 26.5a8.95 8.95 0 0 0-2.75-1L43 25l-1.25-5.25h-3.5L37 25l-1.25.5c-1 .25-1.75.75-2.75 1l-1.25.75L27 24.5 24.5 27l2.75 4.75L26.5 33a8.95 8.95 0 0 0-1 2.75L25 37l-5.25 1.25v3.5L25 43l.5 1.25c.25 1 .75 1.75 1 2.75l.75 1.25L24.5 53l2.5 2.5 4.75-2.75 1.25.75a8.95 8.95 0 0 0 2.75 1L37 55z"/>
            <path id="Path_12293" data-name="Path 12293" d="M40 50.754a10.67 10.67 0 1 1 .161 0H40m0-16.5A5.75 5.75 0 1 0 45.751 40a5.657 5.657 0 0 0-5.562-5.75h-.188"/>
            <path id="Path_12294" data-name="Path 12294" d="M40 0a2.362 2.362 0 0 0-2.5 2.215 2.258 2.258 0 0 0 0 .285A2.362 2.362 0 0 0 39.716 5 2.258 2.258 0 0 0 40 5 35 35 0 1 1 5 40a33.9 33.9 0 0 1 6-19.5v3a2.362 2.362 0 0 0 2.216 2.5 2.258 2.258 0 0 0 .285 0A2.362 2.362 0 0 0 16 23.789a2.258 2.258 0 0 0 0-.285V11H3.5A2.362 2.362 0 0 0 1 13.219a2.258 2.258 0 0 0 0 .281A2.362 2.362 0 0 0 3.216 16a2.258 2.258 0 0 0 .284 0H8a39.059 39.059 0 0 0-8 24A40 40 0 1 0 40 0" style="fill:#ce171f"/>
        </g>
    </g>
</svg>
